<svg xmlns="http://www.w3.org/2000/svg" width="810" viewBox="0 0 810 810" height="810" version="1.0"><defs><clipPath id="a"><path d="M 524.132812 585.015625 L 694.484375 585.015625 L 694.484375 760.175781 L 524.132812 760.175781 Z M 524.132812 585.015625"/></clipPath><clipPath id="b"><path d="M 483.300781 577.113281 L 694.484375 577.113281 L 694.484375 652 L 483.300781 652 Z M 483.300781 577.113281"/></clipPath><clipPath id="c"><path d="M 115.625 71 L 288 71 L 288 489 L 115.625 489 Z M 115.625 71"/></clipPath><clipPath id="d"><path d="M 115.625 283 L 443 283 L 443 376 L 115.625 376 Z M 115.625 283"/></clipPath><clipPath id="e"><path d="M 194 31.617188 L 293 31.617188 L 293 95 L 194 95 Z M 194 31.617188"/></clipPath><clipPath id="f"><path d="M 201.425781 742 L 308 742 L 308 778.617188 L 201.425781 778.617188 Z M 201.425781 742"/></clipPath></defs><path fill="#CB1368" d="M 308.695312 356.109375 C 308.378906 356.109375 307.039062 355.976562 304.691406 355.703125 C 303.285156 355.542969 302.03125 355.4375 300.9375 355.386719 C 300.832031 355.320312 300.726562 355.292969 300.609375 355.292969 C 299.859375 355.242188 299.199219 355.1875 298.660156 355.136719 C 298.171875 354.925781 297.84375 354.59375 297.671875 354.148438 C 298.332031 353.988281 299.121094 353.765625 300.042969 353.503906 C 300.148438 353.503906 300.242188 353.476562 300.292969 353.421875 C 302.308594 352.816406 304.863281 351.949219 307.960938 350.800781 C 310.304688 349.933594 311.6875 349.25 312.132812 348.761719 C 312.398438 348.8125 312.699219 348.894531 313.03125 349.011719 C 317.707031 350.089844 320.511719 350.644531 321.433594 350.644531 C 322.367188 350.644531 322.832031 350.75 322.832031 350.972656 C 320.816406 352.277344 316.097656 353.988281 308.695312 356.109375 Z M 257.90625 208.644531 L 264.769531 207.421875 C 265.203125 206.882812 265.230469 204.5625 264.847656 200.480469 C 264.625 198.464844 264.03125 195.609375 263.058594 191.90625 C 262.609375 191.589844 262.148438 191.289062 261.660156 191.011719 C 260.898438 191.445312 260.304688 191.878906 259.871094 192.316406 C 257.90625 193.683594 256.050781 195.503906 254.3125 197.792969 C 253.71875 198.386719 252.863281 199.453125 251.78125 200.96875 C 251.886719 201.085938 251.992188 201.191406 252.109375 201.296875 C 254.5625 203.96875 256.484375 206.421875 257.90625 208.644531 Z M 250.226562 39.871094 C 250.714844 39.542969 251.175781 39.246094 251.625 38.972656 C 245.140625 34.507812 234.792969 33.992188 220.582031 37.425781 C 211.21875 39.707031 203.980469 43.21875 198.863281 47.953125 C 198.644531 48.121094 198.453125 48.308594 198.292969 48.527344 C 195.457031 51.304688 193.3125 54.457031 191.839844 57.996094 C 191.457031 58.972656 191.132812 59.957031 190.859375 60.9375 C 190.367188 62.785156 190.046875 64.722656 189.878906 66.734375 C 189.609375 69.402344 189.664062 72.207031 190.046875 75.144531 L 192.734375 88.371094 L 193.636719 92.539062 L 194.042969 94.332031 C 194.96875 93.300781 195.703125 92.289062 196.25 91.3125 C 197.832031 88.210938 199.570312 85.40625 201.476562 82.902344 C 202.183594 81.925781 202.894531 81 203.597656 80.128906 C 204.46875 79.089844 205.367188 78.085938 206.292969 77.105469 L 203.925781 61.59375 C 203.871094 60.230469 203.925781 58.921875 204.085938 57.671875 C 204.960938 49.941406 209.148438 44.363281 216.667969 40.933594 C 218.027344 40.335938 219.496094 39.789062 221.074219 39.300781 C 234.082031 36.25 243.800781 36.441406 250.226562 39.871094 Z M 506.574219 219.667969 L 508.578125 226.28125 C 513.464844 223.382812 519.089844 222.472656 525.4375 223.59375 C 533.761719 225.054688 540.902344 229.613281 546.828125 237.226562 C 552.714844 244.851562 555.652344 253.320312 555.652344 262.617188 L 555.652344 320.183594 L 563.332031 321.5 L 563.332031 261.3125 C 563.332031 250.972656 559.734375 241.53125 552.542969 232.984375 C 545.300781 224.382812 536.59375 219.183594 526.410156 217.390625 C 523.59375 216.890625 520.839844 216.707031 518.167969 216.8125 C 514.003906 216.984375 510.144531 217.929688 506.574219 219.667969 Z M 572.394531 207.09375 L 572.394531 290.0625 C 572.394531 291.300781 572.828125 292.339844 573.699219 293.15625 C 574.515625 294.027344 575.527344 294.460938 576.726562 294.460938 C 577.980469 294.460938 579.007812 294.027344 579.824219 293.15625 C 580.691406 292.339844 581.125 291.300781 581.125 290.0625 L 581.125 168.070312 C 581.125 166.871094 580.691406 165.855469 579.824219 165.039062 C 579.007812 164.171875 577.980469 163.738281 576.726562 163.738281 C 575.738281 163.738281 574.871094 164.039062 574.105469 164.632812 C 574.4375 165.183594 574.59375 165.777344 574.59375 166.4375 L 574.59375 196.082031 C 574.105469 196.886719 573.367188 197.347656 572.394531 197.464844 Z M 563.332031 325.003906 L 563.332031 321.5 L 550.753906 323.699219 L 563.332031 325.898438 Z M 550.59375 323.777344 L 513.925781 330.152344 C 506.023438 331.5625 495.683594 332.128906 482.890625 331.863281 C 470.035156 331.585938 458.523438 330.558594 448.34375 328.757812 C 440.125 327.292969 434.710938 325.6875 432.089844 323.949219 C 430.296875 324.871094 429.835938 325.925781 430.707031 327.121094 C 432.285156 329.414062 438.160156 331.457031 448.34375 333.246094 C 458.523438 335.050781 470.035156 336.078125 482.890625 336.355469 C 495.683594 336.617188 506.023438 336.050781 513.925781 334.644531 L 563.410156 325.988281 Z M 489.503906 308.515625 L 489.582031 308.515625 L 495.140625 309.488281 L 495.140625 273.929688 L 489.503906 275.640625 Z M 287.304688 375.800781 C 287.410156 379 287.582031 382.648438 287.792969 386.730469 C 288.453125 399.414062 290.492188 409.460938 293.917969 416.863281 C 297.34375 424.265625 299.910156 428.320312 301.597656 429.03125 C 302.796875 429.519531 303.902344 429.980469 304.941406 430.414062 C 308.210938 431.507812 310.804688 431.996094 312.699219 431.890625 C 311.449219 427.042969 310.304688 420.839844 309.277344 413.265625 C 308.339844 406.800781 307.550781 399.6875 306.90625 391.957031 C 306.472656 385.425781 306.246094 382.105469 306.246094 382.003906 C 306.035156 377.589844 306.007812 374.074219 306.167969 371.464844 C 306.445312 366.566406 307.417969 363.550781 309.105469 362.390625 C 310.632812 361.417969 313.570312 360.007812 317.929688 358.152344 C 321.578125 356.675781 324.515625 355.597656 326.742188 354.886719 C 330.234375 353.421875 332.195312 353.882812 332.628906 356.28125 C 332.457031 354.753906 332.457031 354.609375 332.628906 355.871094 C 332.300781 352.171875 331.429688 349.933594 330.007812 349.167969 C 328.597656 348.300781 327.097656 347.628906 325.515625 347.128906 L 309.84375 343.625 C 304.230469 345.625 300.347656 347.101562 298.171875 348.023438 C 297.238281 348.40625 296.617188 348.707031 296.289062 348.917969 C 291.230469 352.183594 288.359375 356.136719 287.714844 360.773438 C 287.332031 363.917969 287.199219 368.9375 287.304688 375.800781 Z M 267.457031 759.886719 C 267.5625 759.453125 267.679688 759.125 267.785156 758.914062 C 268.113281 759.28125 268.601562 759.703125 269.261719 760.136719 C 272.460938 760.574219 275.769531 760.78125 279.140625 760.78125 C 285.726562 760.78125 290.574219 760.085938 293.679688 758.664062 C 293.996094 758.558594 294.273438 758.414062 294.484375 758.253906 C 294.328125 758.097656 294.140625 757.953125 293.917969 757.847656 C 293.152344 757.410156 291.441406 756.925781 288.769531 756.371094 C 282.023438 755.015625 276.492188 752.589844 272.199219 749.113281 C 268.984375 746.546875 264.902344 742.332031 259.949219 736.457031 C 257.65625 733.574219 255.613281 731.058594 253.824219 728.9375 C 251.097656 725.671875 248.648438 723.011719 246.472656 720.945312 L 244.59375 720.945312 C 235.71875 727.410156 225.835938 728.910156 214.953125 725.433594 L 212.910156 725.75 C 212.53125 725.75 211.929688 725.699219 211.109375 725.59375 C 210.132812 725.488281 209.398438 725.367188 208.90625 725.265625 C 208.800781 725.265625 208.335938 725.238281 207.519531 725.183594 C 207.195312 725.183594 207.03125 725.054688 207.03125 724.777344 C 207.03125 724.5 206.921875 724.394531 206.699219 724.445312 C 206.59375 724.445312 206.457031 724.472656 206.292969 724.527344 L 206.210938 724.367188 C 205.34375 723.222656 204.90625 721.972656 204.90625 720.613281 L 203.515625 716.359375 C 203.136719 718.21875 202.945312 720.417969 202.945312 722.984375 C 202.945312 724.183594 203.191406 726.6875 203.679688 730.492188 C 204.226562 734.246094 204.5 736.5625 204.5 737.433594 L 204.332031 742.003906 C 204.277344 744.347656 204.359375 746.46875 204.582031 748.378906 C 204.632812 749.140625 204.796875 750.117188 205.070312 751.3125 C 205.34375 752.40625 206.351562 753.382812 208.089844 754.25 C 209.886719 754.960938 210.867188 755.398438 211.027344 755.554688 C 212.769531 757.847656 213.886719 759.863281 214.378906 761.601562 C 215.03125 763.945312 216.253906 765.628906 218.050781 766.671875 C 219.414062 767.421875 221.019531 767.804688 222.871094 767.804688 C 224.726562 767.804688 227.691406 767.132812 231.773438 765.761719 C 232.640625 765.496094 233.515625 765.222656 234.386719 764.945312 C 234.171875 764.785156 233.949219 764.628906 233.734375 764.457031 C 230.738281 762.667969 228.371094 761.246094 226.628906 760.21875 C 223.46875 758.253906 221.128906 756.292969 219.605469 754.328125 C 217.425781 751.667969 216.335938 748.5625 216.335938 745.03125 C 216.335938 738.710938 217.863281 734.191406 220.910156 731.46875 C 223.085938 729.570312 226.410156 728.449219 230.871094 728.121094 C 234.414062 728.121094 237.132812 728.015625 239.042969 727.792969 C 238.988281 727.582031 238.878906 727.304688 238.714844 726.976562 C 238.714844 726.921875 238.6875 726.871094 238.632812 726.816406 C 242.007812 728.503906 243.75 730.570312 243.859375 733.019531 C 243.914062 735.472656 245.085938 739.117188 247.375 743.964844 C 247.527344 744.292969 248.054688 745.597656 248.921875 747.890625 C 249.027344 748.152344 249.132812 748.429688 249.253906 748.707031 C 249.304688 748.8125 249.332031 748.890625 249.332031 748.945312 C 249.820312 749.496094 250.253906 750.011719 250.636719 750.496094 C 250.476562 750.496094 250.308594 750.523438 250.148438 750.578125 C 250.792969 752.050781 251.480469 753.40625 252.191406 754.660156 C 253.269531 756.570312 254.363281 758.175781 255.457031 759.480469 L 255.457031 759.242188 L 255.378906 758.914062 L 255.378906 758.820312 C 255.152344 758.386719 254.941406 757.742188 254.71875 756.871094 C 258.144531 757.898438 261.199219 758.6875 263.859375 759.242188 C 265.058594 759.453125 266.257812 759.664062 267.457031 759.886719" fill-rule="evenodd"/><path fill="#F9B440" d="M 587.753906 614.542969 L 587.753906 614.621094 L 589.136719 614.875 L 603.019531 612.421875 L 603.019531 612.34375 L 589.136719 614.792969 Z M 541.28125 177.695312 C 541.164062 178.300781 541.230469 178.894531 541.441406 179.5 L 541.441406 179.660156 L 541.519531 179.738281 C 541.519531 179.855469 541.558594 179.960938 541.613281 180.066406 C 541.664062 180.1875 541.742188 180.316406 541.847656 180.476562 C 542.179688 180.910156 542.613281 181.292969 543.152344 181.621094 L 570.273438 195.015625 C 570.65625 195.171875 571.0625 195.34375 571.5 195.503906 C 571.8125 195.554688 572.117188 195.609375 572.394531 195.660156 C 573.261719 195.777344 574 195.632812 574.59375 195.253906 L 574.59375 166.4375 C 574.59375 165.777344 574.4375 165.183594 574.105469 164.632812 C 574 164.472656 573.882812 164.300781 573.777344 164.144531 C 573.238281 163.496094 572.566406 163.085938 571.734375 162.925781 C 570.917969 162.761719 570.140625 162.867188 569.378906 163.25 L 542.335938 176.957031 C 542.007812 177.128906 541.742188 177.316406 541.519531 177.539062 C 541.414062 177.589844 541.335938 177.644531 541.28125 177.695312 Z M 587.753906 577.878906 L 589.136719 577.640625 L 603.019531 580.089844 L 603.019531 318.800781 L 587.753906 321.5 L 587.753906 577.878906" fill-rule="evenodd"/><path fill="#F68E2C" d="M 572.394531 197.464844 C 573.367188 197.347656 574.105469 196.886719 574.59375 196.082031 L 574.59375 195.253906 C 574 195.632812 573.261719 195.777344 572.394531 195.660156 C 572.117188 195.609375 571.816406 195.554688 571.5 195.503906 C 571.0625 195.34375 570.65625 195.171875 570.273438 195.015625 L 543.152344 181.621094 C 542.613281 181.292969 542.179688 180.910156 541.847656 180.476562 C 541.742188 180.316406 541.664062 180.1875 541.613281 180.066406 C 541.558594 179.960938 541.519531 179.855469 541.519531 179.738281 L 541.441406 179.660156 L 541.441406 179.5 C 541.230469 178.894531 541.164062 178.300781 541.28125 177.695312 C 541.007812 178.027344 540.78125 178.40625 540.625 178.84375 L 540.546875 178.921875 C 540.269531 179.683594 540.269531 180.449219 540.546875 181.210938 C 540.546875 181.265625 540.570312 181.316406 540.625 181.382812 L 540.625 181.449219 C 540.675781 181.570312 540.714844 181.671875 540.714844 181.777344 C 540.808594 181.898438 540.902344 182.03125 540.953125 182.1875 C 541.28125 182.6875 541.71875 183.070312 542.257812 183.332031 L 542.335938 183.332031 C 542.390625 183.332031 542.429688 183.359375 542.429688 183.414062 L 569.457031 196.726562 C 569.839844 196.886719 570.207031 197.054688 570.589844 197.214844 C 571.25 197.371094 571.855469 197.464844 572.394531 197.464844" fill-rule="evenodd"/><path fill="#ED208C" d="M 269.261719 760.136719 C 268.601562 759.703125 268.113281 759.28125 267.785156 758.914062 C 267.679688 759.125 267.5625 759.453125 267.457031 759.886719 C 268.0625 759.992188 268.65625 760.085938 269.261719 760.136719 Z M 273.660156 745.03125 C 272.144531 745.03125 271.277344 744.835938 271.050781 744.453125 C 270.894531 744.292969 270.921875 744.125 271.132812 743.964844 L 271.132812 742.898438 C 276.203125 740.671875 280.574219 738.867188 284.277344 737.511719 C 286.132812 738.761719 288.253906 739.910156 290.652344 740.949219 C 288.476562 741.332031 286.160156 741.816406 283.710938 742.410156 C 280.21875 743.226562 276.875 744.097656 273.660156 745.03125 Z M 221.15625 740.699219 L 221.566406 739.472656 C 231.308594 736.917969 238.464844 735.640625 243.042969 735.640625 C 243.261719 736.128906 243.371094 736.5625 243.371094 736.945312 L 243.371094 737.023438 C 243.371094 738.277344 244.1875 740.371094 245.820312 743.320312 C 245.871094 743.425781 245.925781 743.53125 245.984375 743.636719 C 242.117188 742.386719 238.007812 741.871094 233.652344 742.09375 C 230.984375 742.253906 229.078125 742.304688 227.933594 742.253906 C 225.703125 742.09375 223.441406 741.566406 221.15625 740.699219 Z M 326.835938 411.964844 L 315.71875 424.054688 L 311.726562 393.339844 L 327.320312 383.792969 Z M 328.375 375.800781 L 311.226562 384.769531 L 310.25 364.195312 L 328.875 356.109375 Z M 257.90625 208.644531 L 257.089844 225.871094 L 270.394531 251.605469 L 270.816406 217.0625 L 264.769531 207.421875 Z M 581.125 205.550781 L 581.125 290.0625 C 581.125 291.300781 580.691406 292.339844 579.824219 293.15625 C 579.007812 294.027344 577.980469 294.460938 576.726562 294.460938 C 575.527344 294.460938 574.515625 294.027344 573.699219 293.15625 C 572.828125 292.339844 572.394531 291.300781 572.394531 290.0625 L 572.394531 207.09375 L 518.167969 216.652344 L 518.167969 216.8125 C 520.839844 216.707031 523.59375 216.890625 526.410156 217.390625 C 536.59375 219.183594 545.300781 224.382812 552.542969 232.984375 C 559.734375 241.53125 563.332031 250.972656 563.332031 261.3125 L 563.332031 321.5 L 555.652344 320.183594 L 495.140625 309.488281 L 489.582031 308.515625 L 489.503906 308.515625 L 440.097656 317.167969 C 432.207031 318.589844 429.074219 320.40625 430.707031 322.632812 C 431.035156 323.078125 431.496094 323.5 432.089844 323.949219 C 434.710938 325.6875 440.125 327.292969 448.34375 328.757812 C 458.523438 330.558594 470.035156 331.585938 482.890625 331.863281 C 495.683594 332.128906 506.023438 331.5625 513.925781 330.152344 L 550.59375 323.777344 L 550.753906 323.699219 L 563.332031 321.5 L 563.332031 325.003906 L 563.660156 325.738281 L 571.25 324.4375 L 587.753906 321.5 L 603.019531 318.800781 L 663.859375 308.027344 L 663.9375 308.027344 L 666.136719 308.421875 L 666.136719 243.835938 C 666.136719 233.496094 662.554688 224.054688 655.363281 215.507812 C 648.117188 206.90625 639.410156 201.707031 629.230469 199.914062 C 625.527344 199.253906 622.011719 199.125 618.691406 199.507812 L 618.457031 198.925781 Z M 332.628906 356.28125 C 332.195312 353.882812 330.234375 353.421875 326.742188 354.886719 C 324.515625 355.597656 321.578125 356.675781 317.929688 358.152344 C 313.570312 360.007812 310.632812 361.417969 309.105469 362.390625 C 307.417969 363.550781 306.445312 366.566406 306.167969 371.464844 C 306.011719 374.074219 306.035156 377.589844 306.246094 382.003906 C 306.246094 382.105469 306.472656 385.425781 306.90625 391.957031 C 307.550781 399.6875 308.339844 406.800781 309.277344 413.265625 C 310.304688 420.839844 311.449219 427.042969 312.699219 431.890625 C 313.792969 431.769531 314.664062 431.457031 315.308594 430.902344 L 315.402344 430.824219 L 315.480469 430.824219 C 315.53125 430.875 315.742188 430.769531 316.140625 430.507812 C 316.519531 430.179688 317.390625 429.335938 318.746094 427.964844 C 320.15625 426.554688 322.117188 424.566406 324.621094 422.011719 C 328.546875 418.035156 330.535156 414.308594 330.589844 410.816406 C 330.695312 407.339844 330.996094 401.480469 331.484375 393.261719 C 332.023438 385.042969 332.40625 377.972656 332.628906 372.03125 C 332.839844 366.039062 332.960938 362.285156 332.960938 360.773438 C 332.960938 359.191406 332.839844 357.636719 332.628906 356.109375 Z M 280.929688 734.734375 C 278.757812 735.113281 275.898438 735.722656 272.355469 736.539062 C 268.761719 737.300781 266.351562 737.683594 265.097656 737.683594 C 263.570312 737.683594 262.609375 737.539062 262.226562 737.273438 C 261.964844 737.105469 261.714844 736.773438 261.503906 736.285156 C 263.136719 734.496094 266.535156 732.890625 271.710938 731.46875 C 273.449219 730.980469 275.054688 730.664062 276.53125 730.492188 C 274.832031 728.53125 273.832031 726.871094 273.503906 725.515625 C 272.304688 719.957031 269.289062 717.191406 264.441406 717.191406 C 264.003906 717.191406 263.398438 717.296875 262.636719 717.507812 C 262.042969 717.785156 261.554688 718.058594 261.171875 718.324219 C 260.84375 718.980469 260.382812 719.523438 259.777344 719.957031 C 259.132812 720.390625 258.445312 720.640625 257.734375 720.695312 C 257.3125 720.746094 256.246094 720.773438 254.5625 720.773438 C 252.164062 720.824219 249.464844 720.878906 246.472656 720.945312 C 248.648438 723.011719 251.097656 725.671875 253.824219 728.9375 C 255.613281 731.058594 257.65625 733.574219 259.949219 736.457031 C 264.902344 742.332031 268.984375 746.546875 272.199219 749.113281 C 276.492188 752.589844 282.023438 755.015625 288.769531 756.371094 C 291.441406 756.925781 293.152344 757.410156 293.917969 757.847656 C 294.140625 757.953125 294.328125 758.097656 294.484375 758.253906 C 295.472656 757.765625 296.238281 757.410156 296.777344 757.1875 C 297.871094 756.820312 299.121094 756.621094 300.53125 756.621094 C 301.835938 756.621094 302.796875 756.726562 303.386719 756.949219 C 303.890625 757.332031 304.3125 757.597656 304.691406 757.765625 C 305.128906 756.792969 305.351562 755.859375 305.351562 754.988281 C 305.351562 752 304.640625 749.601562 303.230469 747.8125 C 302.136719 746.335938 300.371094 745.03125 297.921875 743.886719 C 296.445312 743.226562 294.050781 742.253906 290.730469 740.949219 C 287.636719 739.632812 285.015625 738.144531 282.894531 736.457031 C 282.183594 735.90625 281.535156 735.339844 280.929688 734.734375 Z M 234.386719 764.945312 C 237.597656 764.128906 240.8125 763.734375 244.023438 763.734375 C 245.925781 763.734375 247.976562 764.101562 250.148438 764.867188 C 252.441406 765.734375 254.007812 766.800781 254.890625 768.054688 C 255.589844 766.90625 255.96875 765.496094 256.023438 763.8125 L 255.945312 763.234375 C 255.785156 761.546875 255.640625 760.320312 255.535156 759.558594 C 255.484375 759.453125 255.457031 759.347656 255.457031 759.242188 L 255.457031 759.480469 C 254.363281 758.175781 253.269531 756.570312 252.191406 754.660156 C 251.480469 753.40625 250.792969 752.050781 250.148438 750.578125 C 248.132812 750.851562 245.382812 751.15625 241.898438 751.472656 C 234.765625 752.183594 230.058594 752.539062 227.769531 752.539062 C 225.105469 752.539062 223.5 751.695312 222.953125 750.011719 C 225.566406 749.035156 228.777344 748.324219 232.589844 747.890625 C 236.347656 747.390625 241.464844 747.074219 247.9375 746.902344 C 248.105469 747.179688 248.265625 747.414062 248.4375 747.640625 C 248.648438 747.917969 248.871094 748.207031 249.082031 748.535156 L 249.253906 748.707031 C 249.132812 748.429688 249.027344 748.152344 248.921875 747.890625 C 248.054688 745.597656 247.527344 744.292969 247.375 743.964844 C 245.085938 739.117188 243.914062 735.472656 243.859375 733.019531 C 243.75 730.570312 242.007812 728.503906 238.632812 726.816406 C 238.6875 726.871094 238.714844 726.921875 238.714844 726.976562 C 238.878906 727.304688 238.988281 727.582031 239.042969 727.792969 C 237.132812 728.015625 234.414062 728.121094 230.871094 728.121094 C 226.410156 728.449219 223.085938 729.570312 220.910156 731.46875 C 217.863281 734.191406 216.335938 738.710938 216.335938 745.03125 C 216.335938 748.5625 217.425781 751.667969 219.605469 754.328125 C 221.128906 756.292969 223.46875 758.253906 226.628906 760.21875 C 228.371094 761.246094 230.738281 762.667969 233.734375 764.457031 C 233.949219 764.628906 234.171875 764.785156 234.386719 764.945312" fill-rule="evenodd"/><path fill="#8A143C" d="M 495.140625 309.488281 L 555.652344 320.183594 L 555.652344 262.617188 C 555.652344 253.316406 552.714844 244.851562 546.828125 237.226562 C 540.902344 229.613281 533.761719 225.054688 525.4375 223.59375 C 519.089844 222.472656 513.464844 223.382812 508.578125 226.28125 L 520.695312 266.132812 L 495.140625 273.929688 L 495.140625 309.488281" fill-rule="evenodd"/><path fill="#E96419" d="M 585.421875 614.175781 L 587.753906 614.621094 L 587.753906 614.542969 Z M 571.25 580.789062 L 587.753906 577.878906 L 587.753906 321.5 L 571.25 324.4375 L 571.25 580.789062" fill-rule="evenodd"/><g clip-path="url(#a)"><path fill="#E79949" d="M 589.136719 614.875 L 589.136719 760.046875 L 630.453125 752.695312 L 630.453125 607.683594 L 651.359375 603.929688 L 651.359375 749.035156 L 694.402344 741.4375 L 694.402344 596.25 L 651.609375 603.808594 L 650.949219 603.929688 L 650.871094 603.929688 L 545.601562 585.398438 L 524.777344 589.074219 L 629.96875 607.601562 L 630.125 607.601562 L 603.019531 612.421875 L 589.136719 614.875" fill-rule="evenodd"/></g><g clip-path="url(#b)"><path fill="#F9B56C" d="M 538.582031 620.179688 C 535.972656 619.746094 534.65625 620.71875 534.65625 623.117188 L 534.65625 640.34375 C 534.65625 642.792969 535.972656 644.242188 538.582031 644.675781 L 575.660156 651.210938 C 578.214844 651.644531 579.492188 650.65625 579.492188 648.273438 L 579.492188 631.046875 C 579.492188 628.597656 578.214844 627.148438 575.660156 626.714844 Z M 483.789062 596.25 L 585.421875 614.175781 L 587.753906 614.542969 L 589.136719 614.792969 L 603.019531 612.34375 L 629.96875 607.601562 L 524.777344 589.074219 L 545.601562 585.398438 L 650.871094 603.929688 L 651.609375 603.808594 L 694.402344 596.25 L 694.480469 596.25 L 603.019531 580.089844 L 589.136719 577.640625 L 587.753906 577.878906 L 571.25 580.789062 L 483.789062 596.25" fill-rule="evenodd"/></g><path fill="#AE6939" d="M 538.582031 620.179688 L 575.660156 626.714844 C 578.214844 627.148438 579.492188 628.597656 579.492188 631.046875 L 579.492188 648.273438 C 579.492188 650.65625 578.214844 651.644531 575.660156 651.210938 L 538.582031 644.675781 C 535.972656 644.242188 534.65625 642.792969 534.65625 640.34375 L 534.65625 623.117188 C 534.65625 620.71875 535.972656 619.746094 538.582031 620.179688 Z M 651.359375 749.035156 L 651.359375 603.929688 L 630.453125 607.683594 L 630.453125 752.789062 L 651.359375 749.113281 Z M 585.421875 614.175781 L 483.789062 596.25 L 483.789062 689.453125 L 541.519531 699.621094 L 541.519531 751.5625 L 589.136719 759.964844 L 589.136719 614.875 L 587.753906 614.621094 L 585.421875 614.175781" fill-rule="evenodd"/><path fill="#C0BDE4" d="M 541.519531 751.5625 L 541.519531 699.621094 L 483.789062 689.453125 L 445.644531 682.726562 L 445.644531 686.847656 L 534.828125 702.570312 L 534.828125 754.949219 L 541.519531 756.132812 L 541.519531 751.5625" fill-rule="evenodd"/><path fill="#B0ABDC" d="M 137.535156 363.457031 L 196.988281 373.835938 L 202.210938 372.929688 L 202.210938 350.800781 L 181.222656 347.457031 L 144.226562 341.582031 L 137.535156 340.515625 Z M 137.535156 365.171875 L 137.535156 365.59375 L 196.738281 375.957031 L 196.738281 375.878906 L 202.210938 374.984375 L 202.210938 374.5625 L 196.738281 375.546875 Z M 402.941406 238.527344 L 455.128906 255.847656 C 460.464844 257.425781 465.191406 255.980469 469.328125 251.515625 L 502.980469 208 Z M 534.832031 702.570312 L 445.644531 686.847656 L 438.953125 685.660156 L 480.117188 722.484375 C 484.355469 726.082031 488.875 726.898438 493.667969 724.933594 L 534.832031 702.570312" fill-rule="evenodd"/><path fill="#E0DEF2" d="M 417.796875 287.363281 L 419.601562 293.328125 C 420.417969 292.460938 421.511719 292.183594 422.867188 292.5 C 424.882812 292.777344 426.597656 293.105469 428.007812 293.488281 C 426.980469 292.945312 426.359375 290.933594 426.136719 287.441406 C 425.042969 287.113281 423.6875 286.980469 422.050781 287.035156 C 419.933594 286.875 418.589844 286.769531 418.046875 286.703125 C 417.941406 286.875 417.863281 287.035156 417.796875 287.191406 Z M 259.871094 192.316406 C 260.304688 191.878906 260.898438 191.445312 261.660156 191.011719 C 262.148438 191.289062 262.609375 191.589844 263.058594 191.90625 C 264.359375 192.722656 265.769531 193.84375 267.296875 195.253906 C 267.734375 195.632812 268.140625 196.015625 268.523438 196.398438 C 270.484375 198.253906 271.789062 199.375 272.433594 199.742188 C 269.722656 189.457031 266.613281 180.960938 263.136719 174.273438 C 262.53125 172.96875 261.882812 171.742188 261.171875 170.597656 C 258.5 167.277344 255.378906 164.804688 251.78125 163.167969 C 251.347656 165.394531 251.78125 167.792969 253.085938 170.347656 C 253.574219 170.953125 255.101562 173.046875 257.65625 176.644531 C 259.410156 179.199219 260.355469 181.292969 260.515625 182.925781 L 260.605469 183.003906 L 259.871094 186.929688 C 259.539062 187.851562 258.933594 188.746094 258.066406 189.617188 C 258.671875 190.550781 259.261719 191.445312 259.871094 192.316406 Z M 534.828125 754.949219 L 534.828125 702.570312 L 493.667969 724.933594 C 488.871094 726.898438 484.355469 726.082031 480.113281 722.484375 L 438.953125 685.660156 L 438.953125 742.175781 L 534.828125 759.070312 Z M 432.179688 283.4375 L 435.933594 289.167969 C 437.726562 289.589844 439.203125 290.074219 440.347656 290.628906 L 440.664062 290.550781 L 442.058594 290.140625 L 489.503906 275.640625 L 495.140625 273.929688 L 520.695312 266.132812 L 508.578125 226.28125 L 506.574219 219.667969 L 502.980469 208 L 469.324219 251.515625 C 465.191406 255.980469 460.460938 257.425781 455.125 255.847656 L 402.941406 238.527344 L 413.886719 274.535156 L 413.964844 274.628906 C 416.796875 274.140625 419.378906 274.113281 421.722656 274.535156 C 422.972656 276.667969 424.738281 278.433594 427.03125 279.855469 C 429.863281 281.753906 431.574219 282.949219 432.179688 283.4375" fill-rule="evenodd"/><path fill="#6B331F" d="M 224.832031 79.636719 C 223.960938 78.980469 223.003906 78.246094 221.972656 77.433594 C 218.214844 80.261719 214.351562 82.957031 210.375 85.515625 C 210.59375 85.679688 210.8125 85.871094 211.027344 86.085938 C 212.117188 87.011719 213.179688 87.914062 214.21875 88.78125 C 214.980469 89.378906 215.742188 89.980469 216.5 90.578125 C 219.554688 92.8125 221.15625 93.953125 221.320312 94.007812 C 221.425781 93.738281 221.539062 93.488281 221.648438 93.273438 C 222.464844 90.445312 223.171875 87.828125 223.773438 85.433594 C 224.097656 83.96875 224.449219 82.03125 224.832031 79.636719 Z M 282.5625 76.042969 L 282.25 76.367188 C 275.492188 70.542969 270.011719 66.953125 265.824219 65.589844 C 261.632812 64.230469 257.90625 63.628906 254.640625 63.792969 C 251.375 63.902344 248.515625 64.285156 246.066406 64.9375 C 244.8125 65.265625 243.585938 65.589844 242.386719 65.921875 C 241.300781 66.300781 240.152344 66.734375 238.960938 67.226562 C 236.019531 68.421875 232.890625 69.921875 229.566406 71.71875 C 235.171875 76.507812 243.066406 80.34375 253.242188 83.226562 C 265.71875 86.878906 275.109375 92.589844 281.417969 100.378906 C 283.933594 103.804688 285.804688 107.210938 287.054688 110.585938 C 288.582031 106.609375 289.070312 101.902344 288.53125 96.457031 C 287.765625 89.542969 285.777344 82.738281 282.5625 76.042969 Z M 210.621094 135.648438 C 209.097656 134.183594 207.65625 132.738281 206.292969 131.324219 C 199.757812 124.355469 195.871094 117.417969 194.613281 110.503906 C 193.851562 105.441406 193.527344 99.453125 193.636719 92.539062 L 192.734375 88.371094 C 190.394531 87.558594 188.300781 86.414062 186.449219 84.945312 C 185.140625 83.910156 184.109375 82.820312 183.347656 81.675781 C 180.515625 86.195312 178.773438 92.835938 178.121094 101.601562 C 176.652344 120.875 175.585938 135.027344 174.933594 144.058594 C 174.230469 153.148438 170.796875 157.617188 164.644531 157.453125 C 158.4375 157.285156 155.011719 157.96875 154.355469 159.492188 C 167.472656 170.757812 182.066406 168.453125 198.128906 152.554688 C 203.40625 147.328125 207.574219 141.695312 210.621094 135.648438" fill-rule="evenodd"/><path fill="#292B6A" d="M 326.835938 411.964844 L 327.320312 383.792969 L 311.726562 393.339844 L 315.71875 424.054688 Z M 308.695312 356.109375 C 316.097656 353.988281 320.816406 352.277344 322.828125 350.972656 C 322.828125 350.75 322.367188 350.644531 321.433594 350.644531 C 320.511719 350.644531 317.707031 350.089844 313.03125 349.011719 C 312.699219 348.894531 312.398438 348.8125 312.132812 348.761719 C 311.6875 349.25 310.304688 349.933594 307.960938 350.800781 C 304.863281 351.949219 302.308594 352.816406 300.292969 353.421875 C 300.242188 353.476562 300.148438 353.503906 300.042969 353.503906 C 299.121094 353.765625 298.332031 353.988281 297.671875 354.148438 C 297.84375 354.59375 298.171875 354.925781 298.660156 355.136719 C 299.199219 355.1875 299.859375 355.242188 300.609375 355.292969 C 300.726562 355.292969 300.832031 355.320312 300.9375 355.386719 C 302.03125 355.4375 303.285156 355.542969 304.691406 355.703125 C 307.039062 355.976562 308.378906 356.109375 308.695312 356.109375 Z M 235.28125 388.203125 L 235.28125 391.800781 C 235.339844 390.601562 235.394531 389.402344 235.445312 388.203125 Z M 241.246094 694.972656 C 243.859375 695.460938 246.308594 695.710938 248.59375 695.710938 L 247.699219 676.757812 C 247.425781 676.757812 247.125 676.734375 246.800781 676.679688 L 246.800781 662.640625 C 246.800781 641.304688 248.816406 619.773438 252.847656 598.054688 C 255.179688 585.476562 259.621094 566.972656 266.152344 542.53125 C 272.582031 518.574219 277.019531 499.742188 279.46875 486.03125 C 283.550781 463.8125 285.59375 441.582031 285.59375 419.3125 C 285.59375 405.707031 284.933594 392.394531 283.632812 379.382812 C 283.578125 379 283.527344 378.644531 283.472656 378.3125 C 278.957031 381.09375 274.070312 383.332031 268.851562 385.019531 C 269.550781 411.359375 268.113281 437.683594 264.519531 463.972656 C 260.542969 492.550781 254.417969 520.667969 246.144531 548.324219 C 245.601562 551.105469 244.894531 553.988281 244.023438 556.976562 C 242.171875 563.785156 239.070312 574.019531 234.710938 587.675781 C 232.699219 615.335938 233.867188 644.546875 238.226562 675.296875 L 238.550781 682.078125 Z M 162.847656 227.675781 C 161.757812 228.109375 161.109375 227.53125 160.886719 225.953125 C 161.160156 220.683594 161.597656 215.324219 162.195312 209.871094 C 162.523438 208.515625 163.09375 207.261719 163.914062 206.117188 C 164.34375 205.628906 164.644531 205.328125 164.808594 205.222656 C 167.367188 202.21875 170.308594 199.820312 173.628906 198.03125 C 174.445312 197.597656 175.265625 197.214844 176.078125 196.886719 C 176.835938 196.503906 177.605469 196.214844 178.367188 195.988281 C 179.070312 195.660156 179.835938 195.632812 180.652344 195.910156 C 181.414062 196.1875 181.550781 198.175781 181.0625 201.863281 C 180.625 205.511719 180.1875 208.75 179.75 211.582031 C 179.371094 214.414062 178.226562 216.730469 176.324219 218.523438 C 174.527344 220.378906 172.105469 222.25 169.054688 224.160156 C 165.949219 226.121094 163.882812 227.292969 162.847656 227.675781 Z M 246.636719 698.082031 L 250.398438 716.203125 C 253.929688 717.730469 257.273438 718.164062 260.4375 717.507812 C 263.058594 717.019531 265.558594 715.820312 267.945312 713.925781 L 264.519531 694.644531 C 260.871094 697.75 254.917969 698.898438 246.636719 698.082031 Z M 201.886719 694.894531 C 212.117188 698.921875 221.863281 700.003906 231.121094 698.160156 L 228.179688 685.015625 C 227.035156 677.601562 225.785156 668.894531 224.425781 658.886719 C 219.089844 621.972656 216.421875 593.011719 216.421875 572.003906 C 216.421875 545.21875 218.734375 516.324219 223.359375 485.28125 C 221.128906 486.652344 218.679688 487.546875 216.011719 487.980469 C 213.945312 488.363281 211.984375 488.441406 210.132812 488.230469 L 210.132812 488.390625 L 184.242188 483.820312 C 184.242188 484.03125 184.273438 484.226562 184.328125 484.386719 C 185.578125 490.589844 186.722656 496.882812 187.753906 503.246094 C 188.574219 508.421875 189.386719 513.542969 190.203125 518.601562 C 191.238281 524.921875 192.246094 531.257812 193.222656 537.632812 C 194.261719 544.109375 194.152344 550.589844 192.902344 557.058594 C 191.867188 563.15625 190.75 569.277344 189.550781 575.429688 C 188.515625 580.828125 187.457031 586.398438 186.367188 592.167969 C 185.390625 598.054688 184.785156 604.0625 184.570312 610.222656 C 184.355469 616.480469 184.4375 622.878906 184.820312 629.398438 C 185.035156 635.5625 185.796875 641.621094 187.101562 647.613281 C 187.921875 651.695312 188.929688 655.726562 190.121094 659.703125 C 190.558594 661.285156 191.046875 662.863281 191.59375 664.433594 C 193.335938 670.582031 195.433594 676.546875 197.882812 682.316406 C 198.261719 683.132812 198.644531 683.976562 199.023438 684.84375 Z M 156.070312 279.933594 C 155.417969 279.382812 154.789062 278.867188 154.195312 278.378906 C 155.121094 277.234375 156.070312 276.035156 157.050781 274.785156 C 158.414062 273.046875 159.882812 271.164062 161.457031 269.148438 C 168.539062 260.007812 176.621094 250.539062 185.710938 240.742188 C 186.09375 240.304688 186.472656 239.898438 186.859375 239.515625 C 191.808594 234.0625 195.625 229.519531 198.292969 225.871094 L 196.574219 203.746094 C 195.871094 198.53125 194.589844 194.460938 192.734375 191.589844 C 185.496094 189.195312 180.160156 188.96875 176.730469 190.933594 C 176.515625 191.089844 176.265625 191.261719 175.992188 191.417969 C 175.289062 191.855469 174.578125 192.394531 173.875 193.050781 C 168.644531 197.515625 162.796875 205.960938 156.3125 218.367188 C 154.085938 222.605469 151.769531 227.375 149.371094 232.65625 C 145.234375 241.636719 137.476562 253.371094 126.101562 267.84375 C 124.792969 270.019531 123.867188 272.085938 123.324219 274.046875 C 122.238281 275.574219 121.691406 276.367188 121.691406 276.417969 C 119.730469 282.515625 119.625 287.007812 121.363281 289.890625 C 124.03125 294.027344 130.179688 298.875 139.820312 304.429688 C 142.976562 306.167969 146.460938 308.027344 150.273438 309.976562 C 151.960938 310.792969 153.671875 311.609375 155.417969 312.425781 C 159.71875 314.492188 164.835938 317.546875 170.773438 321.578125 C 170.824219 321.632812 170.90625 321.710938 171.011719 321.816406 L 181.0625 329.164062 C 181.550781 325.570312 183.015625 322.171875 185.472656 318.957031 C 187.753906 315.914062 190.535156 313.414062 193.800781 311.449219 C 191.570312 309.644531 188.871094 307.5 185.710938 304.996094 C 185.222656 304.667969 184.761719 304.351562 184.328125 304.023438 C 176.757812 298.1875 168.945312 291.578125 160.886719 284.175781 C 159.199219 282.648438 157.59375 281.238281 156.070312 279.933594 Z M 379.332031 306.222656 C 379.121094 305.351562 378.976562 304.457031 378.921875 303.535156 C 378.871094 303.3125 378.84375 301.46875 378.84375 297.976562 C 378.738281 296.726562 378.644531 295.554688 378.605469 294.460938 C 378.605469 292.289062 378.871094 290.378906 379.410156 288.746094 C 379.964844 287.230469 380.753906 285.914062 381.78125 284.835938 L 350.339844 276.667969 C 349.695312 276.601562 348.984375 276.535156 348.21875 276.417969 L 316.042969 272.414062 C 314.511719 268.175781 312.667969 263.039062 310.496094 256.992188 C 305.753906 244.414062 301.261719 230.691406 297.023438 215.835938 C 292.765625 200.914062 289.199219 191.089844 286.3125 186.363281 C 282.347656 179.933594 278.121094 175.800781 273.65625 173.941406 C 274.917969 175.628906 275.683594 178.050781 275.945312 181.210938 C 274.972656 179.683594 273.90625 178.15625 272.757812 176.644531 C 271.679688 175.167969 270.613281 173.917969 269.570312 172.890625 C 268.648438 171.796875 267.78125 170.925781 266.964844 170.269531 C 264.949219 169.730469 263.023438 169.835938 261.167969 170.597656 C 261.878906 171.742188 262.523438 172.96875 263.128906 174.273438 C 266.609375 180.960938 269.714844 189.457031 272.429688 199.742188 C 271.785156 199.375 270.480469 198.253906 268.519531 196.398438 C 268.953125 197.820312 269.335938 199.558594 269.664062 201.625 C 270.480469 206.316406 270.890625 210.449219 270.890625 214.03125 C 270.890625 215.019531 270.863281 216.019531 270.808594 217.0625 L 270.386719 251.605469 L 257.085938 225.871094 C 256.597656 225.28125 256.070312 224.660156 255.53125 224.003906 C 249.328125 216.652344 244.207031 211.015625 240.179688 207.089844 L 207.511719 176.15625 C 205.609375 175.21875 204.816406 173.835938 205.144531 171.980469 C 205.199219 171.664062 205.28125 171.335938 205.390625 171.007812 L 203.757812 171.824219 L 203.757812 172.558594 C 203.757812 173.324219 203.894531 174.167969 204.164062 175.089844 C 204.492188 176.011719 204.816406 177.105469 205.144531 178.355469 C 205.46875 179.605469 205.824219 180.699219 206.207031 181.621094 C 206.535156 182.542969 207.703125 185.242188 209.722656 189.707031 C 211.679688 194.121094 213.066406 197.621094 213.882812 200.242188 C 214.699219 202.746094 215.355469 204.707031 215.84375 206.117188 C 216.386719 207.472656 217.09375 208.539062 217.96875 209.304688 L 226.050781 211.09375 L 233.644531 212.730469 C 233.207031 213.492188 232.421875 214.742188 231.277344 216.496094 C 230.898438 217.035156 230.484375 217.628906 230.054688 218.285156 L 235.605469 217.71875 C 237.566406 217.496094 238.65625 218.285156 238.875 220.078125 L 240.179688 233.140625 C 240.289062 234.011719 240.148438 234.695312 239.769531 235.183594 L 248.511719 241.964844 C 250.195312 242.992188 251.828125 243.980469 253.410156 244.902344 C 264.460938 251.488281 270.28125 254.976562 270.890625 255.347656 C 271.917969 253.660156 272.902344 251.238281 273.824219 248.089844 C 274.589844 245.691406 275.328125 242.835938 276.027344 239.515625 C 276.683594 236.132812 277.371094 232.300781 278.066406 227.992188 C 279.699219 217.167969 280.515625 210.121094 280.515625 206.855469 C 280.515625 206.355469 279.398438 205.300781 277.171875 203.667969 C 275.261719 202.246094 273.878906 201.351562 273.007812 200.96875 C 275.183594 197.542969 276.789062 194.792969 277.832031 192.722656 C 280.492188 203.5625 284.679688 213.597656 290.394531 222.855469 C 292.03125 225.410156 293.753906 227.925781 295.546875 230.363281 C 296.308594 231.246094 296.902344 232.113281 297.335938 232.984375 C 300.671875 238.09375 301.261719 243.863281 299.140625 250.289062 C 299.140625 250.449219 299.089844 250.617188 298.972656 250.777344 C 296.585938 258.125 291.84375 262.761719 284.773438 264.65625 C 284.335938 265.699219 283.890625 266.75 283.46875 267.84375 C 283.46875 267.898438 283.441406 267.921875 283.375 267.921875 C 286.050781 274.191406 288.828125 281.265625 291.714844 289.167969 C 292.53125 290.734375 293.347656 292.183594 294.164062 293.488281 C 294.269531 293.816406 294.375 294.105469 294.480469 294.382812 C 295.296875 296.238281 296.363281 297.898438 297.667969 299.359375 C 299.90625 301.652344 302.488281 303.007812 305.425781 303.441406 L 379.332031 306.222656" fill-rule="evenodd"/><path fill="#F4F1F9" d="M 206.292969 77.105469 C 206.890625 76.449219 207.519531 75.824219 208.171875 75.226562 C 209.421875 73.917969 210.648438 72.671875 211.84375 71.46875 C 215.824219 67.714844 219.660156 64.203125 223.359375 60.941406 C 233.378906 52.007812 242.335938 44.988281 250.226562 39.871094 C 243.800781 36.441406 234.082031 36.25 221.074219 39.300781 C 219.496094 39.789062 218.027344 40.335938 216.667969 40.933594 C 209.148438 44.363281 204.960938 49.941406 204.085938 57.671875 C 203.925781 58.921875 203.871094 60.230469 203.925781 61.59375 Z M 162.847656 227.675781 C 163.882812 227.292969 165.949219 226.121094 169.054688 224.160156 C 172.105469 222.25 174.527344 220.378906 176.324219 218.523438 C 178.226562 216.730469 179.371094 214.414062 179.75 211.582031 C 180.1875 208.75 180.625 205.511719 181.0625 201.863281 C 181.550781 198.175781 181.414062 196.1875 180.652344 195.910156 C 179.835938 195.632812 179.070312 195.660156 178.367188 195.988281 C 177.605469 196.214844 176.835938 196.503906 176.078125 196.886719 C 175.265625 197.214844 174.445312 197.597656 173.628906 198.03125 C 170.308594 199.820312 167.367188 202.21875 164.808594 205.222656 C 164.644531 205.328125 164.34375 205.628906 163.914062 206.117188 C 163.09375 207.261719 162.523438 208.515625 162.195312 209.871094 C 161.597656 215.324219 161.160156 220.683594 160.886719 225.953125 C 161.109375 227.53125 161.757812 228.109375 162.847656 227.675781 Z M 381.789062 284.835938 C 380.761719 285.914062 379.96875 287.230469 379.417969 288.746094 C 378.875 290.378906 378.613281 292.289062 378.613281 294.460938 C 378.652344 295.554688 378.746094 296.726562 378.851562 297.976562 C 378.851562 301.46875 378.875 303.3125 378.929688 303.535156 C 378.980469 304.457031 379.128906 305.351562 379.339844 306.222656 L 398.609375 306.960938 L 398.609375 306.878906 C 397.84375 306.5 395.367188 304.867188 391.179688 301.980469 L 390.851562 301.652344 C 391.667969 297.238281 392.957031 292.90625 394.695312 288.667969 C 394.75 288.507812 394.800781 288.363281 394.855469 288.257812 Z M 240.191406 207.09375 L 243.949219 210.527344 L 248.441406 205.789062 C 249.140625 204.761719 249.800781 203.800781 250.40625 202.929688 C 250.894531 202.21875 251.355469 201.574219 251.789062 200.96875 C 252.867188 199.453125 253.726562 198.386719 254.316406 197.792969 C 256.054688 195.503906 257.914062 193.683594 259.875 192.316406 C 259.269531 191.445312 258.675781 190.550781 258.070312 189.617188 C 256.121094 188.152344 253.605469 186.441406 250.5625 184.480469 C 246.644531 181.871094 241.796875 178.867188 236.023438 175.496094 C 227.203125 169.675781 220.785156 163.988281 216.753906 158.433594 C 211.636719 163.113281 208.558594 166.105469 207.523438 167.410156 C 206.492188 168.714844 205.78125 169.914062 205.402344 171.007812 C 205.292969 171.335938 205.210938 171.664062 205.15625 171.980469 C 204.828125 173.835938 205.621094 175.21875 207.523438 176.15625 L 240.191406 207.09375" fill-rule="evenodd"/><g clip-path="url(#c)"><path fill="#3D1E16" d="M 156.070312 279.933594 L 157.050781 274.785156 C 156.070312 276.035156 155.121094 277.234375 154.195312 278.378906 C 154.789062 278.867188 155.417969 279.382812 156.070312 279.933594 Z M 221.972656 77.433594 C 223.003906 78.246094 223.960938 78.980469 224.832031 79.636719 C 225.917969 80.074219 229.375 81.949219 235.207031 85.269531 C 240.972656 88.757812 247.375 91.667969 254.390625 94.007812 C 262.015625 97.328125 267.652344 100.785156 271.300781 104.375 C 276.953125 109.550781 279.21875 115.398438 278.074219 121.933594 C 278.347656 121.71875 278.558594 121.527344 278.730469 121.363281 C 282.207031 118.914062 284.777344 115.886719 286.410156 112.296875 C 286.738281 111.75 286.949219 111.207031 287.054688 110.667969 L 287.054688 110.585938 C 285.804688 107.210938 283.933594 103.804688 281.417969 100.378906 C 275.109375 92.589844 265.71875 86.878906 253.242188 83.226562 C 243.066406 80.34375 235.171875 76.507812 229.566406 71.71875 C 229.515625 71.71875 229.457031 71.746094 229.40625 71.800781 C 227.554688 73.265625 225.652344 74.710938 223.6875 76.128906 C 223.144531 76.5625 222.574219 76.996094 221.972656 77.433594 Z M 137.535156 363.457031 L 137.535156 340.515625 L 144.226562 341.582031 L 150.273438 309.976562 C 146.460938 308.027344 142.976562 306.167969 139.820312 304.429688 L 129.445312 358.96875 L 117.199219 361.101562 L 115.8125 361.339844 L 115.8125 457.359375 C 115.8125 462.746094 117.6875 467.027344 121.445312 470.175781 C 123.460938 471.875 125.6875 472.980469 128.144531 473.535156 L 128.144531 473.941406 L 184.242188 483.820312 L 210.132812 488.390625 L 210.132812 488.230469 C 207.246094 487.796875 204.65625 486.625 202.375 484.714844 C 198.617188 481.566406 196.738281 477.285156 196.738281 471.898438 L 196.738281 375.957031 L 137.535156 365.59375 L 137.535156 365.171875 L 115.976562 361.339844 L 117.199219 361.101562 L 124.386719 361.101562 Z M 156.3125 218.367188 C 162.796875 205.960938 168.644531 197.515625 173.875 193.050781 C 174.578125 192.394531 175.289062 191.855469 175.992188 191.417969 C 177.523438 189.40625 179.210938 188.074219 181.0625 187.414062 C 181.550781 187.3125 182.066406 187.207031 182.609375 187.101562 C 182.414062 187.101562 182.191406 187.125 181.957031 187.164062 C 180.433594 187.441406 179.046875 187.125 177.796875 186.191406 C 176.539062 185.269531 175.777344 184.070312 175.503906 182.609375 C 175.230469 181.027344 175.5625 179.605469 176.488281 178.355469 C 177.191406 177.394531 178.066406 176.722656 179.101562 176.3125 C 178.992188 176.3125 178.855469 176.339844 178.691406 176.394531 C 169 177.867188 162.304688 187.851562 158.601562 206.355469 Z M 193.636719 92.539062 C 193.527344 99.453125 193.851562 105.441406 194.613281 110.503906 C 195.871094 117.417969 199.757812 124.355469 206.292969 131.324219 C 207.65625 132.738281 209.097656 134.183594 210.621094 135.648438 C 211.332031 136.25 212.035156 136.875 212.746094 137.527344 C 213.617188 138.238281 214.484375 138.972656 215.359375 139.734375 C 215.136719 138.097656 214.8125 136.464844 214.378906 134.835938 C 214.109375 133.6875 213.886719 132.519531 213.722656 131.324219 C 213.5625 130.289062 213.449219 129.199219 213.398438 128.054688 C 213.234375 122.015625 214.402344 114.96875 216.910156 106.90625 L 216.910156 106.746094 C 218.867188 101.355469 220.339844 97.109375 221.320312 94.007812 C 221.15625 93.953125 219.554688 92.8125 216.5 90.578125 C 215.742188 89.980469 214.980469 89.378906 214.21875 88.78125 C 213.179688 87.914062 212.117188 87.011719 211.027344 86.085938 C 210.8125 85.871094 210.59375 85.679688 210.375 85.515625 C 208.90625 86.441406 207.410156 87.367188 205.886719 88.292969 C 202.234375 90.46875 198.292969 92.488281 194.042969 94.332031 C 195.132812 93.191406 195.976562 92.074219 196.574219 90.984375 C 198.097656 88.046875 199.734375 85.351562 201.476562 82.902344 C 199.570312 85.40625 197.832031 88.210938 196.25 91.3125 C 195.703125 92.289062 194.96875 93.300781 194.042969 94.332031 L 193.636719 92.539062" fill-rule="evenodd"/></g><g clip-path="url(#d)"><path fill="#E06F50" d="M 202.210938 364.683594 L 209.398438 365.910156 L 209.230469 364.195312 L 202.210938 362.972656 Z M 417.804688 287.363281 C 416.289062 289.917969 414.679688 292.105469 412.996094 293.894531 C 412.71875 294.222656 412.390625 294.566406 412.007812 294.949219 L 408.820312 297.570312 C 408.503906 297.726562 408.175781 297.925781 407.84375 298.136719 L 407.765625 298.214844 C 406.460938 299.148438 406.371094 300.480469 407.515625 302.21875 C 408.175781 302.824219 408.742188 303.390625 409.242188 303.929688 C 410.164062 304.867188 410.730469 305.578125 410.953125 306.0625 C 411.21875 306.5 411.519531 306.90625 411.847656 307.289062 C 413.378906 309.132812 415.195312 310.488281 417.316406 311.371094 C 419.765625 312.515625 422.386719 312.914062 425.167969 312.597656 C 424.941406 312.425781 424.664062 312.265625 424.335938 312.097656 L 420.660156 310.714844 C 420.609375 310.660156 420.53125 310.632812 420.425781 310.632812 C 418.460938 309.382812 417.804688 307.90625 418.460938 306.222656 L 418.539062 306.222656 C 418.59375 306.167969 418.621094 306.117188 418.621094 306.0625 C 419.988281 306.167969 422.03125 306.417969 424.746094 306.800781 C 421.265625 305.328125 418.6875 304.074219 416.988281 303.035156 C 416.167969 302.113281 416.394531 301.191406 417.644531 300.269531 L 417.722656 300.269531 C 417.777344 300.203125 417.84375 300.152344 417.894531 300.097656 C 420.070312 299.558594 422.742188 299.664062 425.890625 300.425781 C 430.144531 301.242188 432.832031 301.652344 433.976562 301.652344 C 433.054688 300.886719 431.660156 300.425781 429.816406 300.269531 C 428.773438 299.820312 427.261719 299.558594 425.230469 299.441406 C 420.226562 297.925781 418.105469 296.316406 418.871094 294.632812 C 419.09375 294.078125 419.332031 293.644531 419.609375 293.328125 Z M 220.914062 367.949219 L 225.8125 368.765625 L 220.996094 369.660156 L 221.160156 371.308594 L 235.207031 368.765625 L 220.75 366.238281 Z M 217.238281 322.300781 C 220.125 322.367188 222.929688 322.882812 225.652344 323.855469 C 225.269531 321.195312 223.851562 319.128906 221.402344 317.652344 C 220.042969 316.835938 218.488281 316.246094 216.75 315.863281 Z M 433.898438 292.671875 L 435.375 292.183594 C 435.535156 291.261719 435.71875 290.246094 435.941406 289.167969 L 432.1875 283.4375 C 432.570312 284.742188 433.019531 286.875 433.570312 289.8125 C 433.675781 290.839844 433.796875 291.800781 433.898438 292.671875 Z M 137.539062 363.457031 L 124.390625 361.101562 L 117.203125 361.101562 L 115.980469 361.339844 L 137.539062 365.171875 L 196.742188 375.546875 L 202.214844 374.5625 L 209.972656 373.257812 L 209.804688 371.625 L 202.214844 372.929688 L 196.992188 373.835938 Z M 201.722656 318.0625 C 202.972656 319.261719 204.335938 320.207031 205.808594 320.917969 L 205.480469 316.191406 C 204.445312 316.402344 203.4375 316.730469 202.460938 317.167969 C 202.078125 317.324219 201.722656 317.496094 201.394531 317.652344 C 201.507812 317.757812 201.617188 317.902344 201.722656 318.0625 Z M 441.988281 291.273438 L 442.148438 291.367188 L 442.066406 290.140625 L 440.671875 290.550781 C 441.171875 290.761719 441.605469 290.984375 441.988281 291.195312 L 441.988281 291.273438" fill-rule="evenodd"/></g><path fill="#742521" d="M 198.941406 42.238281 C 199.164062 42.074219 199.378906 41.910156 199.59375 41.75 L 199.59375 41.585938 C 199.378906 41.800781 199.164062 42.019531 198.941406 42.238281" fill-rule="evenodd"/><path fill="#363798" d="M 202.210938 374.984375 L 209.96875 373.585938 L 209.96875 373.257812 L 202.210938 374.5625 Z M 175.992188 191.417969 C 176.265625 191.261719 176.515625 191.089844 176.730469 190.933594 C 180.160156 188.96875 185.496094 189.195312 192.734375 191.589844 C 192.246094 190.761719 191.734375 190.0625 191.183594 189.457031 C 189.003906 187.441406 186.175781 186.652344 182.691406 187.101562 L 182.609375 187.101562 C 182.066406 187.207031 181.550781 187.308594 181.0625 187.414062 C 179.210938 188.074219 177.523438 189.40625 175.992188 191.417969 Z M 208.335938 352.515625 C 205.070312 351.382812 202.050781 349.667969 199.269531 347.378906 C 195.515625 344.113281 192.304688 340.4375 189.632812 336.355469 C 186.421875 339.515625 183.617188 343.214844 181.222656 347.457031 L 202.210938 350.800781 L 202.210938 362.972656 L 209.230469 364.195312 Z M 203.355469 289.652344 L 198.292969 225.871094 C 195.625 229.519531 191.808594 234.0625 186.859375 239.515625 C 188.871094 246.640625 190.535156 252.410156 191.839844 256.820312 C 195.324219 269.242188 199.164062 280.171875 203.355469 289.652344 Z M 183.347656 81.675781 C 184.109375 82.816406 185.140625 83.90625 186.449219 84.941406 C 188.300781 86.414062 190.394531 87.554688 192.734375 88.367188 L 190.046875 75.140625 C 189.664062 72.203125 189.609375 69.398438 189.878906 66.730469 C 190.046875 64.71875 190.367188 62.785156 190.859375 60.9375 C 189.5 61.808594 188.21875 62.816406 187.019531 63.957031 C 183.371094 67.546875 181.550781 71.632812 181.550781 76.207031 C 181.550781 78.164062 182.148438 79.988281 183.347656 81.675781 Z M 201.476562 82.898438 C 199.734375 85.347656 198.097656 88.042969 196.574219 90.980469 C 195.976562 92.070312 195.132812 93.1875 194.042969 94.332031 C 197.09375 92.808594 199.84375 91.171875 202.289062 89.433594 C 203.597656 88.558594 204.878906 87.6875 206.128906 86.820312 C 206.238281 86.710938 206.320312 86.65625 206.375 86.65625 C 207.355469 85.949219 208.335938 85.242188 209.3125 84.535156 C 211.984375 82.574219 214.625 80.558594 217.238281 78.492188 C 218.328125 77.671875 219.390625 76.855469 220.421875 76.042969 C 222.929688 74.082031 225.378906 72.097656 227.769531 70.078125 C 228.097656 69.808594 228.398438 69.535156 228.671875 69.265625 C 228.835938 69.210938 228.945312 69.152344 228.996094 69.101562 C 233.410156 65.347656 237.761719 61.453125 242.0625 57.421875 C 244.734375 54.976562 246.769531 52.632812 248.1875 50.402344 C 248.566406 49.855469 248.898438 49.308594 249.175781 48.769531 C 249.554688 48.003906 249.871094 47.273438 250.148438 46.5625 C 250.792969 44.605469 251.625 42.832031 252.597656 41.253906 C 252.824219 40.875 253.035156 40.550781 253.242188 40.277344 C 253.691406 39.625 254.152344 38.996094 254.640625 38.398438 C 254.851562 38.125 255.101562 37.910156 255.378906 37.746094 C 256.457031 36.605469 257.710938 35.621094 259.132812 34.808594 C 257.5 35.570312 255.863281 36.464844 254.230469 37.5 C 253.414062 37.9375 252.597656 38.398438 251.78125 38.886719 C 251.730469 38.945312 251.675781 38.96875 251.625 38.96875 C 251.175781 39.242188 250.714844 39.542969 250.226562 39.871094 C 242.335938 44.984375 233.378906 52.007812 223.359375 60.9375 C 219.660156 64.199219 215.824219 67.714844 211.84375 71.46875 C 210.648438 72.667969 209.421875 73.917969 208.171875 75.222656 C 207.519531 75.820312 206.890625 76.449219 206.292969 77.101562 C 205.367188 78.085938 204.46875 79.089844 203.597656 80.128906 C 202.894531 80.996094 202.183594 81.921875 201.476562 82.898438 Z M 216.75 315.863281 C 218.488281 316.246094 220.042969 316.835938 221.398438 317.652344 C 223.847656 319.128906 225.269531 321.195312 225.652344 323.855469 C 226.140625 323.976562 226.628906 324.132812 227.117188 324.34375 C 229.242188 325.226562 230.410156 326.832031 230.632812 329.164062 C 231.121094 334.878906 230.574219 340.4375 228.996094 345.824219 C 228.507812 347.5625 227.472656 349.039062 225.890625 350.234375 C 223.933594 351.699219 221.863281 352.738281 219.6875 353.34375 L 220.746094 366.238281 L 235.207031 368.765625 L 221.15625 371.308594 L 221.15625 371.625 L 235.28125 369.09375 L 235.28125 388.203125 L 235.445312 388.203125 C 235.394531 389.402344 235.339844 390.601562 235.28125 391.800781 L 235.28125 465.117188 C 235.28125 470.503906 233.410156 475.441406 229.648438 479.894531 C 227.742188 482.132812 225.652344 483.925781 223.359375 485.28125 C 218.734375 516.324219 216.421875 545.21875 216.421875 572.003906 C 216.421875 593.011719 219.089844 621.972656 224.425781 658.886719 C 225.785156 668.894531 227.035156 677.601562 228.179688 685.015625 L 231.121094 698.160156 C 234.601562 697.5 237.976562 696.449219 241.246094 694.972656 L 238.550781 682.078125 L 238.226562 675.296875 C 233.867188 644.546875 232.699219 615.335938 234.710938 587.675781 C 239.070312 574.019531 242.171875 563.785156 244.023438 556.976562 C 244.894531 553.988281 245.601562 551.105469 246.144531 548.324219 C 254.417969 520.667969 260.542969 492.550781 264.519531 463.972656 C 268.113281 437.683594 269.550781 411.359375 268.851562 385.019531 C 264.546875 386.386719 259.976562 387.363281 255.128906 387.953125 C 254.3125 373.640625 249.464844 358.757812 240.589844 343.296875 C 240.425781 342.964844 240.265625 342.585938 240.101562 342.148438 C 239.011719 339.699219 238.035156 337.382812 237.164062 335.210938 C 234.003906 327.214844 232.425781 321.433594 232.425781 317.902344 C 232.425781 300.203125 242.144531 287.035156 261.582031 278.378906 L 261.582031 277.40625 C 261.582031 275.65625 262.09375 274.074219 263.136719 272.664062 C 264.058594 271.359375 265.175781 270.492188 266.480469 270.042969 C 267.890625 269.621094 269.035156 269.78125 269.90625 270.542969 C 270.894531 271.359375 271.40625 272.742188 271.460938 274.707031 C 275.648438 273.402344 279.269531 272.230469 282.328125 271.191406 L 282.5625 271.191406 C 282.839844 270.042969 283.117188 268.964844 283.378906 267.925781 C 283.445312 267.925781 283.472656 267.898438 283.472656 267.84375 C 283.894531 266.75 284.34375 265.699219 284.777344 264.65625 C 291.851562 262.761719 296.59375 258.125 298.976562 250.777344 C 299.09375 250.617188 299.148438 250.449219 299.148438 250.289062 C 301.269531 243.863281 300.675781 238.09375 297.34375 232.984375 C 293.917969 237.171875 289.398438 239.488281 283.789062 239.925781 C 280.417969 240.082031 277.835938 239.949219 276.03125 239.515625 C 275.332031 242.835938 274.59375 245.691406 273.832031 248.089844 C 272.910156 251.238281 271.921875 253.660156 270.894531 255.347656 C 270.289062 254.976562 264.464844 251.488281 253.414062 244.902344 C 248.84375 250.617188 243.71875 253.476562 238.058594 253.476562 C 229.347656 253.476562 224.097656 249.472656 222.300781 241.464844 C 222.078125 240.332031 221.921875 239.160156 221.808594 237.960938 L 210.703125 239.109375 Z M 248.59375 695.710938 C 252.191406 695.710938 255.429688 695.105469 258.316406 693.90625 L 258.722656 690.890625 L 261.003906 675.453125 C 262.042969 669.6875 263.058594 663.257812 264.03125 656.1875 C 265.441406 647.363281 266.863281 637.605469 268.273438 626.871094 C 268.445312 625.304688 268.65625 623.777344 268.929688 622.300781 C 272.910156 588.386719 276.714844 563.761719 280.363281 548.40625 C 281.828125 538.710938 284.316406 526.527344 287.792969 511.832031 C 289.863281 503.390625 291.519531 496.421875 292.773438 490.917969 C 294.789062 482.804688 296.011719 477.828125 296.445312 475.984375 C 300.371094 458.125 303.203125 442.9375 304.941406 430.414062 C 303.902344 429.980469 302.796875 429.519531 301.597656 429.03125 C 299.910156 428.320312 297.34375 424.265625 293.917969 416.863281 C 290.492188 409.460938 288.453125 399.414062 287.792969 386.730469 C 287.582031 382.648438 287.410156 379 287.304688 375.800781 C 286.105469 376.667969 284.828125 377.511719 283.472656 378.316406 C 283.527344 378.644531 283.578125 379 283.632812 379.382812 C 284.933594 392.394531 285.59375 405.707031 285.59375 419.3125 C 285.59375 441.582031 283.550781 463.8125 279.46875 486.03125 C 277.019531 499.742188 272.582031 518.574219 266.152344 542.53125 C 259.621094 566.972656 255.179688 585.476562 252.847656 598.054688 C 248.820312 619.773438 246.800781 641.304688 246.800781 662.640625 L 246.800781 676.679688 C 247.125 676.734375 247.425781 676.757812 247.699219 676.757812 Z M 197.800781 697.832031 L 203.515625 716.359375 L 204.90625 720.613281 L 205.234375 721.679688 L 210.214844 723.628906 C 211.84375 724.339844 213.425781 724.933594 214.953125 725.433594 C 225.835938 728.910156 235.71875 727.410156 244.59375 720.945312 C 244.703125 720.878906 244.785156 720.824219 244.84375 720.773438 C 245.382812 720.339844 245.902344 719.929688 246.390625 719.546875 L 250.398438 716.203125 L 246.636719 698.082031 C 243.097656 699.542969 239.582031 700.714844 236.101562 701.585938 C 234.527344 701.964844 232.890625 702.296875 231.203125 702.570312 C 219.824219 704.414062 208.691406 702.835938 197.800781 697.832031 Z M 209.230469 220.484375 L 224.503906 218.851562 L 226.054688 211.09375 L 217.972656 209.304688 C 217.097656 208.539062 216.394531 207.472656 215.847656 206.117188 C 215.359375 204.707031 214.707031 202.746094 213.886719 200.242188 C 213.070312 197.621094 211.6875 194.121094 209.726562 189.707031 C 207.710938 185.242188 206.542969 182.542969 206.210938 181.621094 C 205.832031 180.699219 205.476562 179.605469 205.152344 178.355469 C 204.824219 177.105469 204.5 176.011719 204.167969 175.089844 C 203.902344 174.167969 203.761719 173.324219 203.761719 172.558594 L 203.761719 171.824219 L 199.519531 173.863281 C 198.425781 174.191406 197.09375 174.601562 195.515625 175.089844 C 194.480469 175.417969 193.148438 175.933594 191.511719 176.644531 C 194.449219 177.566406 197.011719 179.199219 199.1875 181.542969 C 203.597656 185.730469 206.457031 192.695312 207.765625 202.441406 C 207.816406 202.546875 207.84375 202.667969 207.84375 202.773438 L 209.230469 220.484375" fill-rule="evenodd"/><g clip-path="url(#e)"><path fill="#9B90CF" d="M 280.191406 35.382812 C 284.394531 36.742188 288.042969 38.949219 291.140625 41.992188 C 291.519531 42.375 291.902344 42.753906 292.285156 43.140625 C 290.546875 39.105469 287.054688 36.0625 281.828125 33.992188 C 279.707031 33.175781 277.308594 32.496094 274.648438 31.949219 C 269.75 31.679688 265.558594 32.199219 262.070312 33.503906 L 261.910156 33.503906 C 261.410156 33.664062 260.976562 33.855469 260.605469 34.074219 C 260.054688 34.292969 259.566406 34.539062 259.132812 34.8125 C 257.710938 35.625 256.457031 36.605469 255.378906 37.75 C 255.101562 37.914062 254.851562 38.128906 254.640625 38.402344 C 254.152344 39 253.691406 39.625 253.242188 40.28125 C 253.035156 40.550781 252.824219 40.875 252.597656 41.257812 C 251.625 42.835938 250.792969 44.605469 250.148438 46.566406 C 249.871094 47.277344 249.554688 48.007812 249.175781 48.773438 C 248.898438 49.3125 248.566406 49.859375 248.1875 50.402344 C 246.769531 52.636719 244.734375 54.976562 242.0625 57.425781 C 237.761719 61.453125 233.410156 65.347656 228.996094 69.105469 C 228.945312 69.15625 228.835938 69.214844 228.671875 69.269531 C 228.398438 69.535156 228.097656 69.808594 227.769531 70.082031 C 225.378906 72.097656 222.929688 74.085938 220.421875 76.042969 C 219.390625 76.855469 218.328125 77.675781 217.238281 78.492188 C 214.625 80.5625 211.984375 82.578125 209.3125 84.539062 C 208.335938 85.242188 207.355469 85.953125 206.375 86.65625 C 206.320312 86.65625 206.238281 86.714844 206.128906 86.824219 C 204.878906 87.691406 203.597656 88.5625 202.289062 89.433594 C 199.84375 91.175781 197.09375 92.8125 194.042969 94.332031 C 198.292969 92.488281 202.234375 90.46875 205.886719 88.292969 C 207.410156 87.367188 208.90625 86.441406 210.375 85.515625 C 214.351562 82.957031 218.214844 80.261719 221.972656 77.433594 C 222.574219 76.996094 223.144531 76.5625 223.6875 76.128906 C 225.652344 74.710938 227.554688 73.265625 229.40625 71.800781 C 229.457031 71.746094 229.515625 71.71875 229.566406 71.71875 C 231.035156 70.460938 232.484375 69.269531 233.898438 68.121094 C 237.109375 65.457031 240.242188 62.679688 243.289062 59.792969 C 246.9375 56.476562 249.554688 53.042969 251.125 49.507812 C 251.175781 49.394531 251.242188 49.289062 251.292969 49.179688 C 251.503906 48.691406 251.730469 48.171875 251.941406 47.632812 C 252.824219 45.019531 254.007812 42.753906 255.535156 40.851562 C 256.300781 39.925781 257.144531 39.105469 258.066406 38.402344 C 258.777344 37.804688 259.488281 37.3125 260.183594 36.929688 C 260.949219 36.550781 261.714844 36.195312 262.476562 35.871094 C 265.847656 34.5625 269.933594 34.019531 274.726562 34.234375 C 274.949219 34.183594 275.160156 34.183594 275.386719 34.234375 C 277.125 34.507812 278.730469 34.886719 280.191406 35.382812" fill-rule="evenodd"/></g><path fill="#0F0E0C" d="M 220.992188 369.660156 L 225.808594 368.765625 L 220.910156 367.949219 Z M 202.210938 372.929688 L 209.800781 371.625 L 209.398438 365.910156 L 202.210938 364.683594 Z M 229.566406 71.71875 C 232.890625 69.921875 236.019531 68.421875 238.960938 67.226562 C 240.152344 66.734375 241.300781 66.300781 242.386719 65.921875 L 280.191406 35.382812 C 278.730469 34.886719 277.125 34.507812 275.386719 34.234375 C 275.160156 34.183594 274.949219 34.183594 274.726562 34.234375 C 269.933594 34.019531 265.847656 34.5625 262.476562 35.871094 C 261.714844 36.195312 260.949219 36.550781 260.183594 36.929688 C 259.488281 37.3125 258.777344 37.804688 258.066406 38.402344 C 257.144531 39.105469 256.300781 39.925781 255.535156 40.851562 C 254.007812 42.753906 252.824219 45.019531 251.941406 47.632812 C 251.730469 48.171875 251.503906 48.691406 251.292969 49.179688 C 251.242188 49.289062 251.175781 49.394531 251.125 49.507812 C 249.554688 53.042969 246.9375 56.476562 243.289062 59.792969 C 240.242188 62.679688 237.109375 65.457031 233.898438 68.121094 C 232.484375 69.269531 231.035156 70.460938 229.566406 71.71875" fill-rule="evenodd"/><path fill="#F79A75" d="M 214.953125 725.433594 C 213.425781 724.933594 211.84375 724.34375 210.214844 723.628906 L 205.234375 721.679688 L 204.90625 720.613281 C 204.90625 721.972656 205.34375 723.222656 206.210938 724.367188 L 206.292969 724.527344 C 206.457031 724.472656 206.59375 724.445312 206.699219 724.445312 C 206.921875 724.394531 207.03125 724.5 207.03125 724.777344 C 207.03125 725.054688 207.195312 725.183594 207.519531 725.183594 C 208.335938 725.238281 208.800781 725.265625 208.90625 725.265625 C 209.398438 725.367188 210.132812 725.488281 211.109375 725.59375 C 211.929688 725.699219 212.53125 725.75 212.910156 725.75 Z M 419.601562 293.328125 C 419.324219 293.644531 419.089844 294.078125 418.863281 294.632812 C 418.101562 296.316406 420.222656 297.925781 425.226562 299.441406 C 427.253906 299.558594 428.769531 299.820312 429.808594 300.269531 C 431.65625 300.425781 433.050781 300.886719 433.972656 301.652344 C 432.828125 301.652344 430.140625 301.242188 425.886719 300.425781 C 422.738281 299.664062 420.0625 299.558594 417.890625 300.097656 C 417.835938 300.152344 417.773438 300.203125 417.71875 300.269531 L 417.640625 300.269531 C 416.386719 301.191406 416.164062 302.113281 416.980469 303.035156 C 418.679688 304.074219 421.261719 305.328125 424.738281 306.800781 C 422.027344 306.417969 419.984375 306.167969 418.613281 306.0625 C 418.613281 306.117188 418.589844 306.167969 418.535156 306.222656 L 418.457031 306.222656 C 417.796875 307.90625 418.457031 309.382812 420.417969 310.632812 C 420.523438 310.632812 420.601562 310.660156 420.65625 310.714844 L 424.332031 312.097656 C 424.660156 312.265625 424.9375 312.425781 425.160156 312.597656 C 422.382812 312.914062 419.761719 312.515625 417.3125 311.371094 C 415.191406 310.488281 413.371094 309.132812 411.84375 307.289062 C 411.515625 306.90625 411.210938 306.5 410.949219 306.0625 C 410.726562 305.578125 410.160156 304.867188 409.238281 303.929688 C 408.734375 303.390625 408.167969 302.824219 407.511719 302.21875 C 406.363281 300.480469 406.457031 299.148438 407.761719 298.214844 L 407.839844 298.136719 C 408.167969 297.925781 408.5 297.726562 408.816406 297.570312 L 412.003906 294.949219 C 412.382812 294.566406 412.714844 294.222656 412.992188 293.894531 C 414.675781 292.105469 416.285156 289.917969 417.796875 287.363281 L 417.796875 287.191406 C 417.863281 287.035156 417.941406 286.875 418.046875 286.703125 C 418.589844 286.769531 419.933594 286.875 422.050781 287.035156 C 423.6875 286.980469 425.042969 287.113281 426.136719 287.441406 C 426.359375 290.933594 426.980469 292.945312 428.007812 293.488281 C 426.597656 293.105469 424.882812 292.777344 422.867188 292.5 C 421.511719 292.183594 420.417969 292.460938 419.601562 293.328125 Z M 189.636719 336.355469 C 192.308594 340.4375 195.519531 344.113281 199.273438 347.378906 C 202.054688 349.667969 205.074219 351.382812 208.339844 352.515625 C 209.210938 352.792969 210.109375 353.042969 211.03125 353.253906 C 214.082031 354.015625 216.96875 354.042969 219.691406 353.34375 C 221.867188 352.738281 223.9375 351.699219 225.894531 350.234375 C 227.476562 349.039062 228.511719 347.5625 229 345.824219 C 230.578125 340.4375 231.125 334.878906 230.636719 329.164062 C 230.414062 326.832031 229.246094 325.226562 227.121094 324.34375 C 226.632812 324.132812 226.144531 323.976562 225.65625 323.855469 C 222.933594 322.882812 220.128906 322.367188 217.242188 322.300781 C 216.207031 322.25 215.140625 322.277344 214.058594 322.394531 C 211.007812 322.554688 208.257812 322.066406 205.808594 320.917969 C 204.335938 320.207031 202.972656 319.261719 201.722656 318.0625 C 201.667969 318.007812 201.617188 317.957031 201.558594 317.902344 C 199.4375 321.328125 196.578125 323.910156 192.988281 325.660156 C 190.207031 327.015625 188.195312 328.980469 186.941406 331.535156 C 187.269531 332.128906 187.59375 332.757812 187.925781 333.417969 C 188.46875 334.394531 189.042969 335.378906 189.636719 336.355469 Z M 214.382812 134.839844 C 219.5 142.625 225.109375 148.664062 231.207031 152.964844 C 237.898438 157.753906 244.597656 159.878906 251.296875 159.332031 C 252.21875 159.226562 253.117188 159.09375 253.984375 158.929688 L 256.199219 157.210938 C 261.53125 152.585938 266.078125 147.273438 269.832031 141.285156 C 271.847656 138.027344 273.53125 134.703125 274.890625 131.328125 C 275.441406 130.128906 275.902344 128.878906 276.285156 127.570312 C 274.929688 124.632812 273.347656 121.039062 271.542969 116.792969 C 269.316406 112.816406 264.746094 109.359375 257.832031 106.421875 C 253.90625 104.792969 247.53125 102.285156 238.71875 98.914062 C 233.871094 96.570312 228.890625 92.078125 223.777344 85.4375 C 223.175781 87.835938 222.46875 90.449219 221.652344 93.277344 C 221.542969 93.496094 221.429688 93.742188 221.324219 94.015625 C 220.34375 97.117188 218.871094 101.359375 216.914062 106.753906 L 216.914062 106.910156 C 214.40625 114.972656 213.238281 122.019531 213.402344 128.058594 C 213.453125 129.203125 213.566406 130.292969 213.726562 131.328125 C 213.890625 132.527344 214.113281 133.695312 214.382812 134.839844 Z M 433.898438 292.671875 C 433.796875 291.800781 433.675781 290.839844 433.570312 289.8125 C 433.019531 286.875 432.570312 284.742188 432.1875 283.4375 C 431.582031 282.949219 429.871094 281.753906 427.039062 279.855469 C 424.746094 278.433594 422.980469 276.667969 421.730469 274.535156 C 419.386719 274.113281 416.804688 274.140625 413.972656 274.628906 L 413.890625 274.535156 C 412.152344 274.863281 409.691406 275.851562 406.542969 277.484375 C 406.320312 277.589844 406.132812 277.695312 405.976562 277.800781 C 405.421875 278.078125 404.9375 278.328125 404.5 278.539062 C 401.234375 280.988281 398.351562 283.6875 395.847656 286.625 C 395.519531 287.113281 395.1875 287.664062 394.859375 288.257812 C 394.808594 288.363281 394.753906 288.507812 394.703125 288.667969 C 392.960938 292.90625 391.671875 297.238281 390.855469 301.652344 L 391.183594 301.980469 C 395.375 304.867188 397.847656 306.5 398.613281 306.878906 L 398.613281 306.960938 C 398.890625 307.117188 399.167969 307.289062 399.429688 307.445312 L 401.722656 308.84375 C 402 309 402.234375 309.132812 402.460938 309.25 L 402.539062 309.078125 C 406.949219 311.53125 411.035156 313.03125 414.789062 313.570312 C 419.199219 313.675781 422.414062 313.675781 424.429688 313.570312 C 425.40625 313.464844 426.273438 313.292969 427.039062 313.082031 L 427.117188 313.082031 L 427.933594 313.242188 C 429.355469 312.703125 430.554688 311.78125 431.53125 310.476562 C 431.964844 310.027344 432.347656 309.539062 432.675781 309 C 435.890625 307.089844 437.628906 304.589844 437.890625 301.480469 C 438.496094 300.507812 439.917969 298.898438 442.144531 296.675781 C 443.671875 294.660156 443.671875 292.882812 442.144531 291.367188 L 441.988281 291.367188 L 441.988281 291.195312 C 441.605469 290.984375 441.171875 290.761719 440.671875 290.550781 L 440.355469 290.628906 C 439.207031 290.074219 437.734375 289.589844 435.941406 289.167969 C 435.71875 290.246094 435.535156 291.261719 435.375 292.183594 C 435.203125 293.15625 435.046875 294.054688 434.875 294.871094 C 434.875 295.144531 434.847656 295.394531 434.796875 295.605469 C 434.796875 295.660156 434.769531 295.75 434.71875 295.855469 L 434.71875 296.015625 C 434.386719 295.09375 434.109375 293.972656 433.898438 292.671875" fill-rule="evenodd"/><path fill="#EE8860" d="M 223.773438 85.433594 C 228.886719 92.074219 233.867188 96.566406 238.714844 98.90625 C 247.527344 102.28125 253.902344 104.785156 257.828125 106.417969 C 264.742188 109.355469 269.3125 112.8125 271.539062 116.789062 C 273.34375 121.03125 274.925781 124.628906 276.28125 127.566406 C 276.4375 127.351562 276.53125 127.128906 276.53125 126.914062 C 277.125 125.5 277.558594 124.140625 277.835938 122.828125 C 277.886719 122.503906 277.96875 122.207031 278.074219 121.933594 C 279.21875 115.398438 276.953125 109.550781 271.300781 104.375 C 267.652344 100.785156 262.015625 97.328125 254.390625 94.007812 C 247.375 91.667969 240.972656 88.757812 235.207031 85.269531 C 229.375 81.949219 225.917969 80.074219 224.832031 79.636719 C 224.449219 82.03125 224.097656 83.96875 223.773438 85.433594 Z M 260.4375 717.511719 C 257.273438 718.171875 253.929688 717.734375 250.398438 716.207031 L 246.390625 719.554688 C 245.902344 719.933594 245.382812 720.34375 244.84375 720.777344 C 244.894531 720.832031 244.917969 720.882812 244.917969 720.949219 L 246.472656 720.949219 C 249.464844 720.882812 252.164062 720.832031 254.5625 720.777344 C 256.246094 720.777344 257.3125 720.75 257.734375 720.699219 C 258.445312 720.644531 259.132812 720.394531 259.777344 719.960938 C 260.382812 719.527344 260.84375 718.988281 261.171875 718.328125 C 260.949219 718.066406 260.710938 717.789062 260.4375 717.511719" fill-rule="evenodd"/><path fill="#2E2C2D" d="M 242.386719 65.921875 C 243.585938 65.589844 244.8125 65.265625 246.066406 64.9375 C 248.515625 64.285156 251.375 63.902344 254.640625 63.792969 C 257.90625 63.628906 261.632812 64.230469 265.824219 65.589844 C 270.011719 66.953125 275.492188 70.542969 282.25 76.367188 L 282.5625 76.042969 C 284.804688 74.027344 286.738281 71.800781 288.359375 69.347656 C 290.808594 65.648438 292.535156 61.644531 293.511719 57.34375 C 294.601562 52.554688 294.195312 47.816406 292.285156 43.140625 C 291.902344 42.753906 291.519531 42.375 291.140625 41.992188 C 288.042969 38.949219 284.394531 36.742188 280.191406 35.382812 L 242.386719 65.921875" fill-rule="evenodd"/><path fill="#273271" d="M 266.96875 170.269531 C 267.785156 170.925781 268.65625 171.796875 269.578125 172.890625 C 270.617188 173.917969 271.683594 175.167969 272.765625 176.644531 C 273.910156 178.15625 274.976562 179.683594 275.953125 181.210938 C 275.6875 178.050781 274.925781 175.628906 273.660156 173.941406 C 273.398438 173.5625 273.121094 173.246094 272.84375 172.96875 C 270.777344 171.546875 268.824219 170.652344 266.96875 170.269531" fill-rule="evenodd"/><path fill="#CD6C48" d="M 244.917969 720.945312 C 244.917969 720.878906 244.894531 720.824219 244.84375 720.773438 C 244.785156 720.824219 244.703125 720.878906 244.59375 720.945312 Z M 216.75 158.429688 C 220.777344 163.980469 227.199219 169.671875 236.019531 175.492188 C 241.792969 178.863281 246.636719 181.867188 250.558594 184.472656 C 253.601562 186.4375 256.117188 188.148438 258.066406 189.609375 C 258.933594 188.742188 259.539062 187.84375 259.871094 186.921875 L 260.605469 183 L 260.515625 182.917969 C 260.355469 181.285156 259.410156 179.191406 257.65625 176.636719 C 255.101562 173.042969 253.574219 170.949219 253.085938 170.34375 C 251.78125 167.789062 251.347656 165.390625 251.78125 163.164062 C 251.398438 161.746094 251.242188 160.464844 251.292969 159.324219 C 244.59375 159.871094 237.894531 157.742188 231.203125 152.957031 C 225.105469 148.652344 219.496094 142.613281 214.378906 134.832031 C 214.8125 136.460938 215.136719 138.09375 215.359375 139.730469 C 214.484375 138.964844 213.617188 138.230469 212.746094 137.523438 C 213.179688 144.707031 214.21875 150.480469 215.847656 154.832031 L 216.75 158.429688" fill-rule="evenodd"/><path fill="#75301C" d="M 210.132812 488.230469 C 211.984375 488.441406 213.945312 488.363281 216.011719 487.980469 C 218.679688 487.546875 221.128906 486.652344 223.359375 485.28125 C 225.652344 483.925781 227.742188 482.132812 229.648438 479.894531 C 233.410156 475.441406 235.28125 470.503906 235.28125 465.117188 L 235.28125 369.09375 L 221.15625 371.625 L 221.15625 371.308594 L 220.992188 369.660156 L 220.910156 367.949219 L 220.746094 366.238281 L 219.6875 353.34375 C 216.964844 354.042969 214.078125 354.015625 211.027344 353.253906 C 210.105469 353.042969 209.207031 352.792969 208.335938 352.515625 L 209.230469 364.195312 L 209.398438 365.910156 L 209.800781 371.625 L 209.96875 373.257812 L 209.96875 373.585938 L 202.210938 374.984375 L 196.738281 375.878906 L 196.738281 471.898438 C 196.738281 477.285156 198.617188 481.566406 202.375 484.714844 C 204.65625 486.625 207.246094 487.796875 210.132812 488.230469 Z M 198.292969 225.871094 L 203.355469 289.65625 L 205.476562 316.191406 L 205.804688 320.917969 C 208.253906 322.066406 211.003906 322.554688 214.054688 322.394531 C 215.136719 322.277344 216.203125 322.25 217.238281 322.300781 L 216.75 315.863281 L 210.703125 239.109375 L 209.230469 220.484375 L 207.84375 202.773438 C 207.84375 202.667969 207.816406 202.546875 207.765625 202.441406 C 206.457031 192.695312 203.597656 185.730469 199.1875 181.542969 C 197.011719 179.199219 194.449219 177.566406 191.511719 176.644531 C 188.191406 175.550781 184.382812 175.367188 180.078125 176.0625 C 179.863281 176.117188 179.617188 176.183594 179.34375 176.234375 C 179.261719 176.261719 179.179688 176.289062 179.101562 176.3125 C 178.066406 176.722656 177.191406 177.394531 176.488281 178.355469 C 175.5625 179.605469 175.230469 181.027344 175.503906 182.609375 C 175.777344 184.070312 176.539062 185.269531 177.796875 186.191406 C 179.046875 187.125 180.433594 187.441406 181.957031 187.164062 C 182.191406 187.125 182.414062 187.101562 182.609375 187.101562 L 182.691406 187.101562 C 186.175781 186.652344 189.003906 187.441406 191.183594 189.457031 C 191.734375 190.0625 192.246094 190.761719 192.734375 191.589844 C 194.589844 194.460938 195.871094 198.53125 196.574219 203.746094 L 198.292969 225.871094" fill-rule="evenodd"/><path fill="#4945A4" d="M 269.496094 309.332031 C 269.496094 310.304688 269.390625 311.09375 269.167969 311.6875 C 268.574219 313.058594 267.351562 313.742188 265.492188 313.742188 C 263.375 313.742188 261.988281 312.871094 261.332031 311.121094 C 261.066406 310.410156 260.921875 309.105469 260.921875 307.195312 C 260.921875 305.023438 261.359375 303.335938 262.226562 302.140625 C 263.058594 301.113281 264.058594 300.730469 265.257812 300.992188 C 266.402344 301.21875 267.378906 302.007812 268.195312 303.363281 C 269.0625 304.945312 269.496094 306.933594 269.496094 309.332031 Z M 274.976562 338.394531 C 274.160156 339.976562 272.765625 340.765625 270.816406 340.765625 C 269.234375 340.765625 267.839844 339.398438 266.640625 336.683594 C 266.429688 336.195312 266.203125 335.695312 265.996094 335.210938 C 265.386719 333.628906 265.097656 332.246094 265.097656 331.046875 C 265.097656 329.679688 265.636719 328.625 266.71875 327.859375 C 267.757812 327.148438 268.957031 326.964844 270.316406 327.292969 C 271.789062 327.609375 272.988281 328.441406 273.910156 329.742188 C 274.949219 331.207031 275.515625 333.035156 275.621094 335.210938 L 275.621094 335.777344 C 275.621094 336.710938 275.410156 337.578125 274.976562 338.394531 Z M 276.03125 239.515625 C 277.835938 239.949219 280.417969 240.082031 283.789062 239.925781 C 289.398438 239.488281 293.917969 237.171875 297.34375 232.984375 C 296.90625 232.113281 296.316406 231.246094 295.550781 230.363281 C 293.761719 227.925781 292.035156 225.410156 290.402344 222.855469 C 284.683594 213.597656 280.496094 203.5625 277.835938 192.722656 C 276.796875 194.792969 275.1875 197.542969 273.015625 200.96875 C 273.882812 201.351562 275.265625 202.246094 277.175781 203.667969 C 279.402344 205.300781 280.523438 206.355469 280.523438 206.855469 C 280.523438 210.121094 279.707031 217.167969 278.074219 227.992188 C 277.375 232.300781 276.691406 236.132812 276.03125 239.515625 Z M 253.414062 244.902344 C 251.835938 243.980469 250.203125 242.992188 248.515625 241.964844 L 239.773438 235.183594 C 239.339844 235.789062 238.605469 236.132812 237.570312 236.25 L 221.808594 237.960938 C 221.921875 239.160156 222.078125 240.332031 222.300781 241.464844 C 224.097656 249.472656 229.347656 253.476562 238.058594 253.476562 C 243.71875 253.476562 248.84375 250.617188 253.414062 244.902344 Z M 226.054688 211.09375 L 224.503906 218.851562 L 230.058594 218.285156 C 230.492188 217.628906 230.902344 217.035156 231.285156 216.496094 C 232.425781 214.742188 233.214844 213.492188 233.652344 212.730469 Z M 268.851562 385.019531 C 274.070312 383.332031 278.957031 381.09375 283.472656 378.3125 C 284.828125 377.511719 286.105469 376.667969 287.304688 375.800781 C 287.199219 368.9375 287.332031 363.917969 287.714844 360.773438 C 288.359375 356.136719 291.230469 352.183594 296.289062 348.917969 C 296.617188 348.707031 297.238281 348.40625 298.171875 348.023438 C 295.445312 340.621094 292.257812 333.707031 288.609375 327.292969 L 281.828125 312.515625 C 279.757812 308.050781 278.730469 302.875 278.730469 296.988281 C 278.558594 288.007812 279.757812 279.40625 282.328125 271.191406 C 279.269531 272.230469 275.648438 273.402344 271.460938 274.707031 L 271.460938 275.195312 C 271.460938 274.917969 271.238281 276.179688 270.816406 278.960938 C 269.933594 281.898438 268.46875 283.359375 266.402344 283.359375 C 264.386719 283.359375 262.964844 282.464844 262.148438 280.671875 C 261.882812 279.960938 261.6875 279.199219 261.582031 278.378906 C 242.144531 287.035156 232.425781 300.203125 232.425781 317.902344 C 232.425781 321.433594 234.003906 327.214844 237.164062 335.210938 C 238.035156 337.382812 239.011719 339.699219 240.101562 342.148438 C 240.265625 342.585938 240.425781 342.964844 240.589844 343.296875 C 249.464844 358.757812 254.3125 373.640625 255.128906 387.953125 C 259.976562 387.363281 264.546875 386.386719 268.851562 385.019531" fill-rule="evenodd"/><path fill="#FFF" d="M 239.773438 235.183594 C 240.152344 234.695312 240.292969 234.011719 240.1875 233.140625 L 238.878906 220.078125 C 238.664062 218.285156 237.570312 217.496094 235.609375 217.71875 L 230.058594 218.285156 L 224.503906 218.851562 L 209.230469 220.484375 L 210.703125 239.109375 L 221.808594 237.960938 L 237.570312 236.25 C 238.605469 236.132812 239.339844 235.789062 239.773438 235.183594 Z M 193.800781 311.449219 C 190.535156 313.414062 187.753906 315.914062 185.472656 318.957031 C 183.015625 322.171875 181.550781 325.570312 181.0625 329.164062 L 183.347656 330.96875 C 183.617188 331.125 183.890625 331.324219 184.164062 331.535156 C 185.472656 332.296875 186.722656 332.929688 187.921875 333.417969 C 187.589844 332.757812 187.265625 332.128906 186.9375 331.535156 C 188.191406 328.980469 190.203125 327.015625 192.984375 325.660156 C 196.574219 323.910156 199.433594 321.328125 201.554688 317.902344 C 201.613281 317.957031 201.664062 318.007812 201.71875 318.0625 C 201.613281 317.902344 201.503906 317.757812 201.390625 317.652344 C 201.011719 317.0625 200.496094 316.507812 199.84375 316.019531 C 199.785156 315.96875 199.734375 315.914062 199.675781 315.863281 C 198.210938 314.820312 196.25 313.359375 193.800781 311.449219" fill-rule="evenodd"/><path fill="#C9C6E8" d="M 263.058594 191.90625 C 264.03125 195.609375 264.625 198.464844 264.847656 200.480469 C 265.230469 204.5625 265.203125 206.882812 264.769531 207.421875 L 270.816406 217.0625 C 270.867188 216.019531 270.894531 215.019531 270.894531 214.03125 C 270.894531 210.449219 270.484375 206.316406 269.667969 201.625 C 269.339844 199.558594 268.957031 197.820312 268.523438 196.398438 C 268.140625 196.015625 267.734375 195.632812 267.296875 195.253906 C 265.769531 193.84375 264.359375 192.722656 263.058594 191.90625 Z M 257.089844 225.871094 L 257.90625 208.644531 C 256.484375 206.421875 254.5625 203.96875 252.109375 201.296875 C 251.992188 201.191406 251.886719 201.085938 251.78125 200.96875 C 251.347656 201.574219 250.886719 202.21875 250.398438 202.929688 C 249.792969 203.800781 249.132812 204.761719 248.4375 205.789062 L 243.941406 210.527344 L 240.1875 207.09375 C 244.214844 211.015625 249.332031 216.652344 255.535156 224.003906 C 256.074219 224.660156 256.601562 225.28125 257.089844 225.871094" fill-rule="evenodd"/><path fill="#625DB4" d="M 328.375 375.800781 L 328.875 356.109375 L 310.25 364.195312 L 311.226562 384.769531 Z M 274.976562 338.394531 C 275.410156 337.578125 275.621094 336.710938 275.621094 335.777344 L 275.621094 335.210938 C 275.515625 333.035156 274.949219 331.207031 273.910156 329.742188 C 272.988281 328.441406 271.789062 327.609375 270.316406 327.292969 C 268.957031 326.964844 267.757812 327.148438 266.71875 327.859375 C 265.636719 328.625 265.097656 329.679688 265.097656 331.046875 C 265.097656 332.246094 265.386719 333.628906 265.996094 335.210938 C 266.203125 335.695312 266.429688 336.195312 266.640625 336.683594 C 267.839844 339.398438 269.234375 340.765625 270.816406 340.765625 C 272.765625 340.765625 274.160156 339.976562 274.976562 338.394531 Z M 269.496094 309.332031 C 269.496094 306.933594 269.0625 304.945312 268.195312 303.363281 C 267.378906 302.007812 266.402344 301.21875 265.257812 300.992188 C 264.058594 300.730469 263.058594 301.113281 262.226562 302.140625 C 261.359375 303.335938 260.921875 305.023438 260.921875 307.195312 C 260.921875 309.105469 261.066406 310.410156 261.332031 311.121094 C 261.988281 312.871094 263.375 313.742188 265.492188 313.742188 C 267.351562 313.742188 268.574219 313.058594 269.167969 311.6875 C 269.390625 311.09375 269.496094 310.304688 269.496094 309.332031 Z M 271.460938 274.707031 C 271.40625 272.742188 270.894531 271.359375 269.90625 270.542969 C 269.035156 269.78125 267.890625 269.621094 266.480469 270.042969 C 265.175781 270.492188 264.058594 271.359375 263.136719 272.664062 C 262.09375 274.074219 261.582031 275.65625 261.582031 277.40625 L 261.582031 278.378906 C 261.6875 279.199219 261.882812 279.960938 262.148438 280.671875 C 262.964844 282.464844 264.386719 283.359375 266.402344 283.359375 C 268.46875 283.359375 269.933594 281.898438 270.816406 278.960938 C 271.238281 276.179688 271.460938 274.917969 271.460938 275.195312 Z M 248.59375 695.710938 C 246.308594 695.710938 243.859375 695.460938 241.246094 694.972656 C 237.976562 696.449219 234.601562 697.5 231.121094 698.160156 C 221.863281 700.003906 212.117188 698.925781 201.886719 694.894531 L 197.800781 697.832031 C 208.691406 702.835938 219.824219 704.414062 231.203125 702.570312 C 232.890625 702.296875 234.527344 701.964844 236.101562 701.585938 C 239.582031 700.714844 243.097656 699.542969 246.636719 698.082031 C 254.917969 698.898438 260.871094 697.75 264.519531 694.644531 C 262.886719 692.089844 260.949219 690.835938 258.722656 690.890625 L 258.316406 693.90625 C 255.429688 695.105469 252.191406 695.710938 248.59375 695.710938" fill-rule="evenodd"/><g clip-path="url(#f)"><path fill="#202855" d="M 294.484375 758.253906 C 294.273438 758.414062 293.996094 758.558594 293.679688 758.664062 C 290.574219 760.085938 285.726562 760.78125 279.140625 760.78125 C 275.769531 760.78125 272.460938 760.574219 269.261719 760.136719 C 268.65625 760.085938 268.0625 759.992188 267.457031 759.886719 C 266.257812 759.664062 265.058594 759.453125 263.859375 759.242188 C 261.199219 758.6875 258.144531 757.898438 254.71875 756.871094 C 254.941406 757.742188 255.152344 758.386719 255.378906 758.820312 L 255.378906 758.914062 L 255.457031 759.242188 C 255.457031 759.347656 255.484375 759.453125 255.535156 759.558594 C 255.640625 760.320312 255.785156 761.546875 255.945312 763.234375 C 257.628906 763.734375 259.515625 764.484375 261.582031 765.523438 C 264.414062 766.878906 266.230469 767.722656 267.046875 768.054688 C 271.894531 770.066406 278.21875 771.070312 286.003906 771.070312 C 293.457031 771.070312 298.816406 770.421875 302.085938 769.121094 C 305.402344 767.867188 307.0625 765.734375 307.0625 762.746094 C 307.0625 761.652344 306.773438 760.625 306.167969 759.636719 C 306.0625 759.425781 305.574219 758.792969 304.691406 757.765625 C 304.3125 757.597656 303.890625 757.332031 303.386719 756.949219 C 302.796875 756.726562 301.835938 756.621094 300.53125 756.621094 C 299.121094 756.621094 297.871094 756.820312 296.777344 757.1875 C 296.238281 757.410156 295.472656 757.765625 294.484375 758.253906 Z M 254.890625 768.054688 C 254.007812 766.800781 252.441406 765.734375 250.148438 764.867188 C 247.976562 764.101562 245.925781 763.734375 244.023438 763.734375 C 240.8125 763.734375 237.597656 764.128906 234.386719 764.945312 C 233.515625 765.222656 232.640625 765.496094 231.773438 765.761719 C 227.691406 767.132812 224.726562 767.800781 222.871094 767.800781 C 221.019531 767.800781 219.414062 767.421875 218.050781 766.671875 C 216.253906 765.628906 215.03125 763.945312 214.378906 761.601562 C 213.886719 759.859375 212.769531 757.847656 211.027344 755.554688 C 210.867188 755.398438 209.886719 754.960938 208.089844 754.25 C 206.351562 753.382812 205.34375 752.40625 205.070312 751.3125 C 204.796875 750.117188 204.632812 749.140625 204.582031 748.378906 C 204.359375 746.46875 204.277344 744.347656 204.332031 742.003906 C 202.539062 744.125 201.636719 747.203125 201.636719 751.234375 C 201.636719 754.066406 202.074219 755.9375 202.945312 756.871094 C 204.035156 757.953125 206.320312 758.503906 209.800781 758.503906 L 210.621094 758.414062 C 211.003906 764.785156 213.398438 769.660156 217.808594 773.03125 C 222.761719 776.785156 230.167969 778.667969 240.019531 778.667969 C 246.335938 778.667969 250.609375 777.851562 252.847656 776.21875 C 254.46875 775.019531 255.285156 772.953125 255.285156 770.015625 C 255.285156 769.792969 255.234375 769.382812 255.128906 768.789062 L 254.890625 768.054688" fill-rule="evenodd"/></g><path fill="#DECCBC" d="M 250.148438 750.578125 C 250.308594 750.523438 250.476562 750.496094 250.636719 750.496094 C 250.253906 750.011719 249.820312 749.496094 249.332031 748.945312 C 249.332031 748.890625 249.304688 748.8125 249.253906 748.707031 L 249.082031 748.535156 C 248.871094 748.207031 248.648438 747.917969 248.4375 747.640625 C 248.265625 747.414062 248.105469 747.179688 247.9375 746.902344 C 241.464844 747.074219 236.347656 747.390625 232.589844 747.890625 C 228.777344 748.324219 225.566406 749.035156 222.953125 750.011719 C 223.5 751.695312 225.105469 752.539062 227.769531 752.539062 C 230.058594 752.539062 234.765625 752.183594 241.898438 751.472656 C 245.382812 751.15625 248.132812 750.851562 250.148438 750.578125 Z M 273.660156 745.03125 C 276.875 744.097656 280.21875 743.226562 283.710938 742.410156 C 286.160156 741.820312 288.476562 741.332031 290.652344 740.949219 C 288.253906 739.910156 286.132812 738.761719 284.277344 737.511719 C 280.574219 738.867188 276.203125 740.671875 271.132812 742.898438 L 271.132812 743.964844 C 270.921875 744.125 270.894531 744.292969 271.050781 744.453125 C 271.277344 744.835938 272.144531 745.03125 273.660156 745.03125 Z M 221.15625 740.699219 C 223.441406 741.566406 225.703125 742.09375 227.933594 742.253906 C 229.078125 742.304688 230.984375 742.253906 233.652344 742.09375 C 238.007812 741.871094 242.117188 742.382812 245.984375 743.636719 C 245.925781 743.53125 245.871094 743.425781 245.820312 743.320312 C 244.1875 740.371094 243.371094 738.277344 243.371094 737.023438 L 243.371094 736.945312 C 243.371094 736.5625 243.261719 736.128906 243.042969 735.640625 C 238.464844 735.640625 231.308594 736.917969 221.566406 739.472656 Z M 276.53125 730.492188 C 275.054688 730.664062 273.449219 730.980469 271.710938 731.46875 C 266.535156 732.890625 263.136719 734.496094 261.503906 736.285156 C 261.714844 736.773438 261.964844 737.105469 262.226562 737.273438 C 262.609375 737.539062 263.570312 737.683594 265.097656 737.683594 C 266.351562 737.683594 268.761719 737.300781 272.355469 736.539062 C 275.898438 735.71875 278.757812 735.113281 280.929688 734.734375 L 280.773438 734.574219 L 278.324219 732.285156 C 278.21875 732.230469 278.152344 732.179688 278.152344 732.125 L 276.847656 730.820312 C 276.742188 730.714844 276.636719 730.597656 276.53125 730.492188" fill-rule="evenodd"/></svg>