<svg xmlns="http://www.w3.org/2000/svg" width="810" viewBox="0 0 810 810" height="810" version="1.0"><defs><clipPath id="a"><path d="M 334 162 L 706.339844 162 L 706.339844 489 L 334 489 Z M 334 162"/></clipPath><clipPath id="b"><path d="M 160 737 L 253.441406 737 L 253.441406 779.570312 L 160 779.570312 Z M 160 737"/></clipPath><clipPath id="c"><path d="M 103.386719 405 L 182 405 L 182 457 L 103.386719 457 Z M 103.386719 405"/></clipPath><clipPath id="d"><path d="M 514 390.25 L 706.339844 390.25 L 706.339844 739 L 514 739 Z M 514 390.25"/></clipPath></defs><path fill="#D87100" d="M 176.128906 760.542969 L 155.871094 760.542969 C 150.265625 760.542969 145.671875 755.949219 145.671875 750.339844 L 145.671875 701.28125 C 145.671875 695.671875 150.265625 691.078125 155.871094 691.078125 L 176.128906 691.078125 C 181.734375 691.078125 186.328125 695.671875 186.328125 701.28125 L 186.328125 750.339844 C 186.328125 755.949219 181.734375 760.542969 176.128906 760.542969"/><path fill="#44220B" d="M 496.734375 729.070312 L 509.417969 729.070312 C 517.109375 729.070312 523.40625 722.773438 523.40625 715.085938 L 523.40625 673.589844 C 523.40625 665.902344 517.109375 659.605469 509.417969 659.605469 L 496.734375 659.605469 C 489.046875 659.605469 482.75 665.902344 482.75 673.589844 L 482.75 715.085938 C 482.75 722.773438 489.046875 729.070312 496.734375 729.070312"/><path fill="#D87100" d="M 655.507812 760.542969 L 675.863281 760.542969 C 681.449219 760.542969 686.015625 755.972656 686.015625 750.394531 L 686.015625 701.226562 C 686.015625 695.644531 681.449219 691.078125 675.863281 691.078125 L 655.507812 691.078125 C 649.929688 691.078125 645.359375 695.644531 645.359375 701.226562 L 645.359375 750.394531 C 645.359375 755.972656 649.929688 760.542969 655.507812 760.542969"/><path fill="#ED8100" d="M 334.539062 710.945312 L 123.652344 710.945312 L 123.652344 432.8125 C 123.652344 409.566406 142.496094 390.726562 165.730469 390.726562 L 334.539062 390.726562 L 334.539062 710.945312"/><g clip-path="url(#a)"><path fill="#ED8100" d="M 467.644531 162 L 582.148438 162 C 650.738281 162 706.339844 217.613281 706.339844 286.222656 L 706.339844 488.992188 L 334.539062 488.992188 L 334.539062 295.132812 C 334.539062 221.609375 394.132812 162 467.644531 162"/></g><path fill="#F9A806" d="M 438.503906 162 L 575.269531 162 C 632.6875 162 679.238281 208.558594 679.238281 265.992188 L 679.238281 501.457031 L 334.539062 501.457031 L 334.539062 265.992188 C 334.539062 208.558594 381.085938 162 438.503906 162"/><path fill="#FFC84D" d="M 186.328125 738.453125 L 123.652344 738.453125 L 123.652344 418.089844 C 123.652344 402.976562 135.902344 390.726562 151.007812 390.726562 L 158.972656 390.726562 C 174.078125 390.726562 186.328125 402.976562 186.328125 418.089844 L 186.328125 738.453125"/><path fill="#FFA91F" d="M 482.75 738.453125 L 186.328125 738.453125 L 186.328125 539.753906 L 482.75 539.753906 L 482.75 738.453125"/><path fill="#F9980D" d="M 482.75 549.59375 L 186.328125 549.59375 L 186.328125 531.679688 L 482.75 531.679688 L 482.75 549.59375"/><path fill="#FFAF22" d="M 679.238281 492.996094 L 186.328125 492.996094 L 186.328125 531.96875 L 679.238281 531.96875 L 679.238281 492.996094"/><path fill="#F79B08" d="M 579.894531 162.660156 C 597.75 173.339844 599.261719 192.832031 597.808594 210.148438 C 596.648438 223.949219 588.359375 307.878906 521.746094 375.871094 C 459.335938 439.582031 379.667969 453.234375 334.21875 455.109375 C 334.21875 455.109375 252.4375 491.484375 270.769531 491.972656 C 415.265625 495.835938 679.238281 492.996094 679.238281 492.996094 L 679.238281 263.441406 C 679.238281 215.78125 642.152344 164.925781 579.894531 162.660156"/><path fill="#F27070" d="M 213.085938 708.984375 C 210.890625 714.117188 213.515625 715.660156 212.253906 723.734375 C 209.726562 739.855469 196.667969 750.371094 194.171875 752.382812 C 185.730469 759.183594 178.105469 760.882812 178.601562 762.675781 C 179.078125 764.410156 186.738281 764.863281 193.894531 762.675781 C 205.96875 758.988281 206.613281 750.835938 217.8125 748.769531 C 221.878906 748.019531 222.9375 748.882812 230.046875 747.65625 C 240.328125 745.886719 242.332031 743.355469 242.839844 742.644531 C 245.277344 739.269531 244.078125 734.863281 243.394531 731.242188 C 239.578125 710.992188 249.132812 701.640625 243.675781 696.746094 C 237.40625 691.121094 218.023438 697.417969 213.085938 708.984375"/><g clip-path="url(#b)"><path fill="#121223" d="M 248.582031 739.363281 C 250.339844 740.996094 251.003906 743.902344 252.339844 749.71875 C 253.917969 756.613281 252.714844 758.535156 252.339844 759.070312 C 251.542969 760.191406 250.539062 760.566406 247.953125 761.40625 C 236.058594 765.277344 234.980469 764.59375 234.496094 764.078125 C 232.753906 762.246094 234.929688 758.839844 233.238281 757.398438 C 231.046875 755.527344 225.316406 759.558594 224.164062 760.40625 C 222.730469 761.457031 222.652344 761.765625 216.960938 767.753906 C 213.292969 771.617188 212.191406 772.679688 210.386719 773.769531 C 208.070312 775.160156 206.035156 775.707031 204.4375 776.101562 C 191.9375 779.183594 181.269531 779.445312 181.269531 779.445312 C 169.332031 779.734375 163.316406 779.8125 161.238281 776.441406 C 159.648438 773.863281 159.4375 769.335938 161.546875 766.75 C 166.90625 760.175781 181.234375 773.554688 196.613281 767.753906 C 204.210938 764.890625 202.371094 761.003906 214.773438 751.386719 C 225.0625 743.402344 242.398438 733.621094 248.582031 739.363281"/></g><path fill="#4BB9E0" d="M 592.699219 184.082031 C 595.453125 184.183594 599.742188 198.726562 599.371094 228.582031 C 597.835938 352.484375 491.355469 480.488281 485.367188 475.601562 C 476.273438 468.183594 444.824219 429.609375 501.484375 366.554688 C 510.183594 356.871094 584.433594 183.761719 592.699219 184.082031"/><path fill="#F27070" d="M 486.867188 121.632812 C 490.847656 126.867188 487.050781 132.957031 492.484375 142.78125 C 497.378906 151.640625 504.160156 153.375 503.457031 156.6875 C 502.671875 160.421875 494.109375 158.046875 482.273438 162.773438 C 468.816406 168.148438 465.589844 173.605469 457.148438 172.578125 C 451.199219 171.859375 446.578125 169.640625 444.492188 163.355469 C 443.8125 161.300781 443.828125 159.859375 443.726562 156.6875 C 443.1875 139.898438 441.328125 138.058594 442.195312 134.089844 C 445.398438 119.449219 478.21875 110.25 486.867188 121.632812"/><path fill="#66C7F2" d="M 503.496094 149.585938 C 512.257812 149.90625 520.089844 151.277344 535.757812 154.035156 C 556.660156 157.710938 590.636719 173.691406 590.636719 173.691406 C 587.074219 175.691406 598.6875 214.875 549.160156 326.199219 C 528.144531 373.441406 472.738281 420.433594 472.738281 420.433594 C 470.167969 416.535156 454.035156 390.769531 443.207031 380.652344 C 428.347656 366.785156 454.367188 352.574219 440.089844 350.980469 C 386.1875 344.960938 358.625 374.921875 341.082031 360.996094 C 337.121094 357.847656 335.113281 353.609375 333.292969 316.484375 C 329.113281 231.097656 337.949219 217.339844 343.308594 210.785156 C 349.660156 203.003906 358.667969 197.8125 376.679688 187.417969 C 396.550781 175.949219 412.847656 170.289062 427.851562 165.160156 C 440.335938 160.894531 445.851562 184.21875 456.402344 181.480469 C 469.914062 177.976562 488.261719 149.03125 503.496094 149.585938"/><path fill="#FFC024" d="M 449.195312 312.851562 L 419.804688 308.863281 L 448.535156 190.808594 L 457.425781 191.757812 L 449.195312 312.851562"/><path fill="#84D9F7" d="M 578.402344 171.464844 C 586.179688 170.867188 593 174.035156 596.195312 177.402344 C 634.230469 217.457031 651.988281 288.921875 653.011719 296.195312 C 655.308594 312.539062 651.257812 308.042969 650.707031 309.4375 C 647.984375 316.339844 640.882812 322.289062 633.277344 323.53125 C 620.3125 325.65625 609.132812 313.554688 599.164062 302.765625 C 590.171875 293.027344 589.863281 289.613281 576.175781 268.640625 C 558.089844 240.945312 553.269531 238.707031 550.59375 225.992188 C 549.523438 220.9375 546.628906 206.148438 554.296875 191.496094 C 556.078125 188.082031 564.207031 172.558594 578.402344 171.464844"/><path fill="#FFC024" d="M 445.261719 171.726562 C 447.449219 168.84375 452.144531 172.625 463.3125 170.714844 C 465.042969 170.421875 466.585938 170.046875 467.214844 170.835938 C 468.394531 172.332031 460.796875 189.140625 459.207031 190.613281 C 456.453125 193.171875 450.945312 193.007812 448.535156 190.808594 C 447.316406 189.6875 447.371094 188.371094 446.890625 184.46875 C 445.636719 174.277344 444.050781 173.320312 445.261719 171.726562"/><path fill="#F7AD0B" d="M 467.214844 170.835938 C 466.585938 170.046875 465.042969 170.421875 463.3125 170.714844 C 462.953125 170.777344 462.621094 170.820312 462.277344 170.867188 C 460.597656 176.265625 455.957031 186.160156 454.761719 187.277344 C 452.972656 188.933594 450.023438 189.441406 447.519531 188.996094 C 447.71875 189.769531 448.003906 190.3125 448.535156 190.808594 C 450.941406 193.007812 456.453125 193.171875 459.207031 190.613281 C 460.796875 189.140625 468.394531 172.332031 467.214844 170.835938"/><path fill="#053A5B" d="M 461.417969 449.101562 C 457.992188 455.480469 391.808594 476.042969 374.082031 481.195312 C 315.546875 498.21875 289.320312 491.207031 270.769531 491.972656 C 244.835938 493.050781 235.367188 482.636719 229.46875 478.566406 C 221.285156 472.929688 195.742188 455.933594 197.582031 440.738281 C 199.230469 427.089844 223.171875 422.054688 235.402344 417 C 378.519531 357.90625 388.574219 360.25 394.851562 366.554688 C 410.53125 382.308594 471.757812 429.894531 461.417969 449.101562"/><path fill="#053D60" d="M 209.78125 714.335938 C 209.78125 714.335938 217.140625 716.988281 229.097656 716.988281 C 239.660156 716.988281 245.402344 714.316406 245.402344 714.316406 C 245.402344 714.316406 296.269531 547.738281 270.769531 491.972656 C 261.480469 471.660156 197.582031 440.738281 197.582031 440.738281 L 209.78125 714.335938"/><path fill="#F47676" d="M 498.328125 80.777344 C 499.730469 87.644531 498.992188 92.699219 497.75 101.226562 C 496.339844 110.902344 495.042969 119.84375 488.773438 129.46875 C 486.316406 133.25 482.460938 139.03125 474.871094 143.730469 C 471.269531 145.960938 463.570312 150.578125 453.140625 149.917969 C 450.953125 149.777344 445.183594 149.410156 440.398438 146.425781 C 430.273438 140.089844 430.433594 125.691406 431.125 98.265625 C 431.617188 79.109375 433.9375 71.589844 436.921875 65.445312 C 440.167969 58.757812 443.59375 51.707031 451.40625 48.496094 C 463.804688 43.394531 478.75 51.480469 486.164062 58.179688 C 495.253906 66.386719 497.464844 76.523438 498.328125 80.777344"/><path fill="#282828" d="M 244.375 724.832031 C 245.367188 725.035156 245.566406 726.355469 247.167969 731.664062 C 249.953125 740.886719 251.125 742.738281 249.957031 745.003906 C 249.199219 746.492188 247.585938 747.257812 244.375 748.734375 C 238.066406 751.628906 235.789062 751.175781 230.101562 753.386719 C 226.378906 754.832031 222.722656 756.25 219.242188 759.59375 C 215.5625 763.125 215.851562 765.191406 212.414062 767.972656 C 209.972656 769.949219 207.519531 770.765625 201.871094 772.003906 C 192.171875 774.128906 187.324219 775.195312 179.839844 775.417969 C 170.625 775.695312 161.191406 775.980469 159.675781 772.003906 C 158.808594 769.738281 160.617188 766.304688 162.773438 764.558594 C 164.792969 762.929688 167.117188 762.75 167.742188 762.695312 C 174.484375 762.066406 182.5625 756.535156 188.527344 752.457031 C 202.980469 742.5625 207.640625 727.722656 209.625 727.316406 C 213.738281 726.476562 214.554688 732.214844 223.273438 734.765625 C 226.566406 735.726562 230.164062 736.777344 233.824219 735.386719 C 240.507812 732.84375 241.769531 724.308594 244.375 724.832031"/><path fill="#A2B5BC" d="M 146.410156 196.6875 L 222.609375 227.472656 L 322.726562 389.367188 L 245.414062 353.765625 L 205.925781 241.378906 L 146.410156 196.6875"/><path fill="#FF8282" d="M 205.117188 240.660156 C 204.113281 240.695312 200.179688 240.835938 198.679688 243.285156 C 197.707031 244.875 198.609375 246.0625 197.488281 249.480469 C 196.78125 251.628906 196.292969 251.558594 195.820312 253.527344 C 195.296875 255.730469 195.476562 257.65625 195.585938 258.769531 C 195.882812 261.761719 196.59375 261.910156 196.300781 263.296875 C 195.742188 265.917969 193.960938 270.664062 196.777344 274.730469 C 199.351562 278.453125 198.722656 278.617188 200.113281 280.214844 C 204.191406 284.910156 211.0625 285.195312 211.78125 285.21875 C 216.964844 285.363281 217.265625 282.902344 223.457031 283.074219 C 226.441406 283.15625 228.5625 283.785156 229.414062 282.59375 C 230.40625 281.199219 228.324219 279.179688 229.414062 276.640625 C 230.125 274.96875 231.359375 275.046875 231.792969 273.539062 C 231.921875 273.105469 232.222656 271.671875 229.886719 268.300781 C 226.699219 263.699219 223.605469 262.722656 223.933594 260.914062 C 224.203125 259.378906 226.554688 259.441406 227.027344 257.8125 C 227.570312 255.964844 225.152344 253.726562 221.789062 250.90625 C 213.519531 243.980469 209.304688 240.515625 205.117188 240.660156"/><path fill="#FF8282" d="M 423.308594 88.042969 C 423.441406 92.207031 423.949219 91.523438 425.621094 105.257812 C 427.398438 119.816406 426.738281 119.84375 427.941406 124.089844 C 429.820312 130.726562 432.558594 140.398438 441.847656 145.078125 C 451.207031 149.792969 461.273438 146.449219 462.121094 146.152344 C 472.953125 142.375 477.378906 132.324219 481.238281 123.554688 C 484.4375 116.292969 485.300781 110.601562 486.453125 102.566406 C 488.90625 85.535156 490.132812 77.007812 484.714844 68.671875 C 479.117188 60.058594 469.769531 56.808594 466.753906 55.761719 C 457.472656 52.527344 441.261719 50.714844 431.417969 59.527344 C 422.65625 67.367188 423.054688 79.933594 423.308594 88.042969"/><path fill="#231D1D" d="M 476.605469 66.871094 C 475.113281 66.035156 472.828125 65.203125 466.464844 65.714844 C 458.441406 66.363281 457.417969 68.066406 452.5625 67.449219 C 448.988281 66.996094 449.414062 66.058594 445.03125 65.136719 C 442.449219 64.585938 434.136719 62.828125 429.683594 66.871094 C 427.511719 68.835938 427.054688 71.453125 426.492188 74.988281 C 423.851562 91.699219 424.980469 101.304688 424.492188 100.683594 C 422.136719 97.636719 420.78125 71.519531 423.308594 65.714844 C 424.175781 63.710938 424.347656 58.53125 430.847656 50.792969 C 436.382812 44.210938 449.867188 30.363281 479.082031 35.476562 C 529.605469 44.308594 507.363281 97.640625 500.800781 113.042969 C 499.132812 116.960938 493.949219 116.921875 491.089844 116.414062 C 489.171875 116.078125 488.253906 112.875 487.613281 110.625 C 485.082031 101.792969 489.277344 97.851562 486.453125 90.921875 C 484.824219 86.917969 483.269531 87.851562 482.109375 83.96875 C 480.4375 78.347656 483.25 74.96875 480.660156 70.636719 C 479.34375 68.4375 477.433594 67.335938 476.605469 66.871094"/><path fill="#FF8282" d="M 492.539062 105.988281 C 493.953125 102.949219 497.535156 96.402344 499.777344 97.007812 C 502.347656 97.695312 501.574219 107.367188 501.511719 108.011719 C 501.234375 111.3125 500.902344 115.1875 498.039062 118.734375 C 496.136719 121.097656 492.1875 124.441406 490.21875 123.371094 C 487.492188 121.886719 489.511719 112.46875 492.539062 105.988281"/><path fill="#F9F9F9" d="M 516.480469 150.820312 C 517.011719 152.117188 516.269531 155.46875 515.730469 157.746094 C 514.269531 163.960938 501.441406 196.550781 496.082031 196.6875 C 494.539062 196.730469 494.097656 195.617188 490.519531 192.234375 C 483.136719 185.269531 475.203125 180.726562 470.496094 178.511719 C 462.277344 174.65625 454.066406 171.394531 454.066406 171.394531 C 454.066406 171.394531 461.238281 168.886719 466.785156 165.90625 C 472.507812 162.828125 483.566406 155.011719 493.257812 144.089844 C 494.691406 142.476562 515.804688 149.144531 516.480469 150.820312"/><path fill="#F9F9F9" d="M 454.066406 171.394531 C 454.066406 171.394531 441.410156 167.804688 443.496094 151.53125 C 443.59375 150.769531 426.113281 167.109375 425.628906 193.722656 C 425.589844 195.613281 430.511719 187.460938 441.199219 179.996094 C 446.808594 176.082031 454.066406 171.394531 454.066406 171.394531"/><path fill="#E8EEEF" d="M 520.742188 336.515625 C 525.011719 327.613281 515.773438 317.296875 501.828125 295.90625 C 483.601562 267.945312 469.300781 237.613281 452.878906 208.554688 C 440.027344 185.808594 417.839844 157.925781 417.839844 157.925781 C 417.839844 157.925781 225.390625 222.945312 222.609375 227.472656 C 220.1875 231.417969 234.175781 245.277344 267.109375 299.796875 C 305.183594 362.839844 315.234375 385.402344 322.726562 389.367188 C 329.863281 393.144531 339.011719 388.609375 343.308594 386.585938 C 348.179688 384.296875 379.738281 376.527344 442.867188 360.996094 C 455.316406 357.929688 467.691406 354.605469 480.132812 351.535156 C 509.996094 344.179688 517.726562 342.800781 520.742188 336.515625"/><path fill="#065A84" d="M 377.425781 363.59375 C 375.945312 387.117188 374.355469 387.234375 374.160156 405.128906 C 373.878906 431.886719 373.921875 445.664062 383.128906 460.023438 C 393.082031 475.550781 408.007812 482.816406 411.65625 484.503906 C 437.34375 496.363281 474.1875 494.445312 489.082031 476.34375 C 492.460938 472.25 495.28125 466.625 496.417969 453.351562 C 497.9375 435.675781 495.421875 416.523438 457.296875 339.851562 C 457.296875 339.851562 449.339844 323.839844 430.402344 304.988281 C 426.980469 301.585938 423.257812 298.195312 417.363281 296.085938 C 407.796875 292.671875 394.488281 293.316406 386.386719 299.054688 C 375.417969 306.820312 380.1875 319.53125 377.425781 363.59375"/><path fill="#F27070" d="M 201.472656 400.644531 C 199.527344 399.683594 196.566406 400.003906 190.648438 400.644531 C 187.253906 401.007812 183.84375 401.375 179.828125 402.671875 C 175.039062 404.210938 163.390625 408.417969 159.6875 410.507812 C 146.640625 417.871094 150.441406 412.757812 148.375 417.21875 C 145.507812 423.394531 152.859375 435.421875 162.234375 438.191406 C 166.132812 439.339844 162.554688 441.257812 165.53125 440.738281 C 167.09375 440.464844 180.351562 436.734375 186.589844 432.105469 C 190.976562 428.847656 190.117188 427.851562 194.371094 424.660156 C 201.183594 419.558594 204.714844 421.136719 206.886719 417.558594 C 209.863281 412.625 206.957031 403.347656 201.472656 400.644531"/><g clip-path="url(#c)"><path fill="#3A3A3A" d="M 175.089844 411.808594 C 176.496094 417.183594 177.210938 416.863281 179.828125 425.003906 C 183.015625 434.941406 179.367188 438.613281 175.425781 439.882812 C 172.585938 440.796875 171.148438 441.667969 167.988281 443.269531 C 165.597656 444.476562 166.847656 443.769531 151.414062 450.710938 C 140.839844 455.464844 141.253906 455.351562 140.929688 455.449219 C 138.960938 456.035156 126.46875 459.734375 115.230469 452.742188 C 113.21875 451.488281 103.628906 445.53125 103.390625 435.824219 C 103.367188 435.054688 103.3125 429.101562 107.445312 424.660156 C 108.296875 423.746094 109.804688 422.386719 115.898438 419.925781 C 121.421875 417.695312 125.851562 416.53125 128.414062 415.863281 C 138.960938 413.132812 140.035156 413.1875 147.695312 411.132812 C 155.492188 409.039062 159.390625 407.996094 161.898438 406.730469 C 167.410156 403.96875 173.476562 405.636719 175.089844 411.808594"/></g><path fill="#225F8C" d="M 183.597656 399.625 C 183.597656 399.625 335.921875 323.019531 375.503906 303.527344 C 393.046875 294.882812 404.316406 289.636719 415.144531 294.71875 C 423.664062 298.722656 430.300781 308.355469 432.867188 318.136719 C 435.410156 327.8125 433.527344 335.929688 432.878906 338.566406 C 430.105469 349.929688 421.773438 363.03125 395.886719 377.316406 C 369.628906 391.796875 243.027344 428.109375 195.765625 433.054688 C 186.925781 433.980469 183.597656 399.625 183.597656 399.625"/><path fill="#FF8282" d="M 512.324219 252.191406 L 500.273438 246.765625 C 494.789062 244.625 491.457031 241.808594 489.390625 239.507812 C 486.757812 236.582031 485.53125 233.789062 482.496094 233.339844 C 480.636719 233.0625 480.164062 233.988281 476.332031 234.429688 C 473.425781 234.765625 472.527344 234.375 469.800781 234.429688 C 468.886719 234.445312 464.597656 234.578125 460.367188 236.242188 C 457.003906 237.566406 454.855469 239.546875 450.574219 243.5 C 446.632812 247.144531 442.445312 251.007812 443.320312 252.574219 C 443.996094 253.789062 447.398438 253.070312 448.035156 252.9375 C 453.972656 251.683594 455.160156 247.40625 460.367188 244.589844 C 466.761719 241.144531 474.328125 242.527344 474.519531 243.5 C 474.617188 244.015625 471.921875 245.175781 466.539062 247.492188 C 462.023438 249.4375 460.910156 249.703125 459.644531 251.121094 C 458.300781 252.621094 449.5625 269.878906 452.347656 270.871094 C 456.121094 272.207031 459.644531 264.546875 459.644531 264.546875 C 459.644531 264.546875 461.859375 266.753906 463.636719 266.722656 C 465.363281 266.699219 465.75 264.667969 467.988281 263.097656 C 470.675781 261.210938 474.886719 260.78125 477.421875 262.371094 C 480.238281 264.128906 478.785156 267.011719 481.410156 269.625 C 485.039062 273.246094 492.683594 272.578125 497.734375 269.625 C 500.847656 267.804688 502.644531 265.308594 503.542969 263.820312 L 512.324219 252.191406"/><path fill="#9BE1F9" d="M 652.1875 293.863281 C 638.382812 259.15625 503.1875 244.964844 502.09375 247.585938 C 501.398438 249.253906 497.722656 268.191406 497.734375 269.625 C 497.753906 271.363281 610.84375 319.339844 615.226562 321.21875 C 626.90625 326.222656 643.332031 326.65625 650.335938 316.117188 C 655.375 308.539062 654.992188 300.910156 652.1875 293.863281"/><g clip-path="url(#d)"><path fill="#ED8100" d="M 706.339844 738.453125 L 514.089844 738.453125 L 514.089844 390.726562 L 706.339844 390.726562 L 706.339844 738.453125"/></g><path fill="#FFC84D" d="M 545.425781 738.453125 L 482.75 738.453125 L 482.75 418.089844 C 482.75 402.976562 495 390.726562 510.105469 390.726562 L 518.070312 390.726562 C 533.175781 390.726562 545.425781 402.976562 545.425781 418.089844 L 545.425781 738.453125"/></svg>